
<svg width="82" height="93" viewBox="0 0 82 93" fill="none" xmlns="http://www.w3.org/2000/svg">
<path fill-rule="evenodd" clip-rule="evenodd" d="M38.8135 3.00158C21.3716 2.83471 7.10396 15.9414 6.86745 33.5809C6.90973 36.7814 8.45158 40.3662 7.42657 43.6038C6.4016 46.8415 4.79895 48.0808 5.02081 54.901C5.46913 57.3833 4.99395 69.5372 13.6771 76.2942C15.2568 77.9481 19.2027 86.3614 29.3715 87.6033C33.6656 88.1278 44.076 83.4429 47.2172 81.4806C48.4624 80.7028 55.6032 79.5407 60.6771 74.2942C65.7509 69.0477 66.6664 62.2893 66.6664 62.2892L67.0784 62.2992C73.1314 62.2992 78.0382 57.5992 78.0382 51.8013C77.9355 47.9133 75.8114 44.3114 72.1514 42.5058C72.2289 42.0197 72.3197 41.5354 72.384 41.0475C72.5575 39.7299 72.6463 38.402 72.6457 37.0739C72.6457 19.8429 64.1118 5.34939 41.5777 3.16236C40.0384 3.03295 40.959 3.09823 38.8135 3.00158Z" fill="white" stroke="white" stroke-width="6"/>
<path fill-rule="evenodd" clip-rule="evenodd" d="M38.8135 3.00158C21.3716 2.83471 7.10396 15.9414 6.86745 33.5809C6.90973 36.7814 8.45158 40.3662 7.42657 43.6038C6.4016 46.8415 4.79895 48.0808 5.02081 54.901C5.46913 57.3833 4.99395 69.5372 13.6771 76.2942C15.2568 77.9481 19.2027 86.3614 29.3715 87.6033C33.6656 88.1278 44.076 83.4429 47.2172 81.4806C48.4624 80.7028 55.6032 79.5407 60.6771 74.2942C65.7509 69.0477 66.6664 62.2893 66.6664 62.2892L67.0784 62.2992C73.1314 62.2992 78.0382 57.5992 78.0382 51.8013C77.9355 47.9133 75.8114 44.3114 72.1514 42.5058C72.2289 42.0197 72.3197 41.5354 72.384 41.0475C72.5575 39.7299 72.6463 38.402 72.6457 37.0739C72.6457 19.8429 64.1118 5.34939 41.5777 3.16236C40.0384 3.03295 40.959 3.09823 38.8135 3.00158Z" fill="white" stroke="white" stroke-width="6"/>
<path d="M7.00697 59C6.76992 59.5503 6.40615 59.9621 6 60.3576" stroke="white" stroke-width="6" stroke-linecap="round" stroke-linejoin="round"/>
<path d="M5.08442 59C4.78179 59.4312 4.36701 59.774 4 60.1313" stroke="white" stroke-width="6" stroke-linecap="round" stroke-linejoin="round"/>
<path d="M6.93912 56C6.09213 57.0157 5.07614 57.8715 4 58.6574" stroke="white" stroke-width="6" stroke-linecap="round" stroke-linejoin="round"/>
<path d="M6.14906 55C5.3686 55.7641 4.04528 55.7163 3 55.9198" stroke="white" stroke-width="6" stroke-linecap="round" stroke-linejoin="round"/>
<path d="M5.88944 54C5.16058 54.298 4.5525 54.7907 4 55.3287" stroke="white" stroke-width="6" stroke-linecap="round" stroke-linejoin="round"/>
<path d="M6.08442 53C5.76752 53.5218 5.36134 53.2667 5 53.2667" stroke="white" stroke-width="6" stroke-linecap="round" stroke-linejoin="round"/>
<path d="M6 51C6.81205 51.1652 6.5839 51.7045 6.69265 52.1038" stroke="white" stroke-width="6" stroke-linecap="round" stroke-linejoin="round"/>
<path d="M74.6771 51.8907C74.6771 51.8907 72.6771 42.8907 68 49.3086" stroke="white" stroke-width="6" stroke-linecap="round" stroke-linejoin="round"/>
<path fill-rule="evenodd" clip-rule="evenodd" d="M35 31.2584C35.4152 27.8232 42.581 22.489 58.7665 34.1037C58.7665 34.1037 46.1701 29.1474 41.102 29.9811C37.0508 30.6475 35 31.2584 35 31.2584Z" fill="white"/>
<path fill-rule="evenodd" clip-rule="evenodd" d="M35 31.2584C35.4152 27.8232 42.581 22.489 58.7665 34.1037C58.7665 34.1037 46.1701 29.1474 41.102 29.9811C37.0508 30.6475 35 31.2584 35 31.2584Z" stroke="white" stroke-width="6" stroke-linecap="round" stroke-linejoin="round"/>
<path fill-rule="evenodd" clip-rule="evenodd" d="M18.5821 33C20.1474 33.0279 21.3319 34.2818 21.7792 35.6377L18.3563 37.564L21.7094 39.5592C21.1989 40.8551 20.0953 41.9646 18.5821 42.0136C16.6404 42.0136 14 40.4528 14 37.9638C14 35.4748 16.6404 33 18.5821 33Z" fill="white"/>
<path fill-rule="evenodd" clip-rule="evenodd" d="M42.5821 33C44.1474 33.0279 45.3319 34.2818 45.7792 35.6377L42.3563 37.564L45.7094 39.5592C45.1989 40.8551 44.0953 41.9646 42.5821 42.0136C40.6404 42.0136 38 40.4528 38 37.9638C38 35.4748 40.6404 33 42.5821 33Z" fill="white"/>
<path opacity="0.256185" d="M5.5 60.2946C9.11502 64.2437 12.0852 65.2877 13.0779 63.3022C15.0779 59.3022 19.1036 54.966 25.0779 54.3022C31.0762 53.6357 33.2543 55.6395 35.1058 57.3429C36.0324 58.1954 36.8771 58.9725 38.0779 59.3022C39.7548 59.7624 41.0992 60.3312 42.4705 60.9114C43.5898 61.385 44.7272 61.8662 46.0779 62.3022C46.1926 62.3392 46.4237 62.4834 46.7493 62.6866C48.5479 63.8092 53.2288 66.7309 57.0779 63.3022C61.1179 59.7034 63.4518 49.109 64.082 46.2482C64.1609 45.8901 64.2131 45.6531 64.2386 45.5663L64.3144 45.3137C64.4046 45.0195 64.5001 44.7168 64.5981 44.4059C65.4124 41.8237 66.4033 38.6816 66.0211 35.2055L65.9068 34.2242C65.2981 29.3213 63.6528 21.0859 56.5511 14.358C49.8269 7.98771 43.744 9.44694 39.7443 10.4064C39.2862 10.5163 38.8553 10.6197 38.454 10.704L38.2907 10.7375C37.3688 10.9223 36.4991 11.1369 35.5497 11.4056L35.1358 11.5251L32.8932 12.1986L32.2811 12.373C31.8964 12.4787 31.5531 12.5646 31.2193 12.6378L29.7236 12.9501C27.5143 13.4035 25.8348 13.5905 22.5023 12.0148C20.9494 11.2806 18.5827 11.211 16.8368 12.0768L16.7562 12.1184C16.2393 12.3956 15.3846 12.9414 14.364 13.7559C20.234 7.01046 29.0377 2.90775 38.8449 3.00158C40.0345 3.05517 40.2815 3.05897 40.5278 3.07379C40.7258 3.08569 40.9233 3.1047 41.6091 3.16236C48.6296 3.84372 54.2912 5.71961 58.7592 8.50062C61.2274 10.3261 63.4227 12.4424 65.3771 14.6968C66.9074 16.462 68.2225 18.3887 69.3085 20.4018C71.6323 25.3507 72.6771 31.0447 72.6771 37.0739C72.6777 38.402 72.5889 39.7299 72.4154 41.0475C72.3725 41.373 72.3179 41.6968 72.2632 42.0206C72.2384 42.1678 72.2135 42.315 72.1898 42.4624C71.6081 41.676 69.3707 44.0913 69.0779 44.3022C68.699 44.5751 66.3564 51.0139 66.0779 52.3022C65.5289 54.8418 65.7841 57.8636 65.9647 60.0027C66.0503 61.0153 66.1191 61.83 66.0779 62.3022C65.937 63.921 65.9879 64.4464 66.1088 64.812C65.381 67.2582 63.8334 71.0629 60.7085 74.2942C56.8707 78.2626 51.8503 79.8942 49.0931 80.7902C48.2052 81.0788 47.5519 81.2911 47.2486 81.4806C44.1075 83.4428 33.697 88.1278 29.4029 87.6033C21.0114 86.5784 16.8577 80.67 14.7742 77.7065C14.333 77.0788 13.9846 76.5833 13.7085 76.2942C7.70591 71.6232 6.07995 64.8509 5.5 60.2946Z" fill="white"/>
<path d="M33.0906 76.5022C33.0906 76.5022 29.294 71.6184 25.0779 74.4008" stroke="white" stroke-width="6" stroke-linecap="round" stroke-linejoin="round"/>
<path d="M70.819 57.149C70.819 57.149 74.3426 53.6493 69 51" stroke="white" stroke-width="6" stroke-linecap="round" stroke-linejoin="round"/>
<path d="M11 32.1105C20.4215 20.988 26.3467 30.5754 25.4566 36.8077C24.5665 43.04 20.2703 47.055 20.2703 47.055C20.2703 47.055 17.9928 48.3158 20.4215 51.6516C22.8502 54.9874 26.6591 53.7216 28.5028 53.1329" stroke="white" stroke-width="6" stroke-linecap="round" stroke-linejoin="round"/>
<path d="M34 55C34 55 37.7871 59.1002 42.7064 61.2847C47.6257 63.4692 51.1506 62.6583 48.2336 67.8211" stroke="white" stroke-width="6" stroke-linecap="round" stroke-linejoin="round"/>
<path d="M23.7963 29.5893C23.7963 29.5893 16.7778 27.3896 11.5485 32.5001C8.94297 35.0465 16.1614 26.5494 21.8026 28.2193" stroke="white" stroke-width="6"/>
<path d="M38 43.721C38 43.721 50.2806 39.8487 52.5929 43.721" stroke="white" stroke-width="6" stroke-linecap="round" stroke-linejoin="round"/>
<path d="M12 44.905C12 44.905 17.2293 41.7985 20.6377 43.5195" stroke="white" stroke-width="6" stroke-linecap="round" stroke-linejoin="round"/>
<path fill-rule="evenodd" clip-rule="evenodd" d="M18.2211 67.5027C23.5799 66.8023 26.2862 66.7425 30.1085 67.9126C31.0133 68.1896 35.0939 68.1901 39.0572 68.1411C41.3601 68.1127 42.3913 67.9975 42.7314 68.0931C43.8388 68.4044 38.2007 70.1496 35.5 71.5C31.5 73.5 24.676 71.0685 23 70.5C19.1514 69.1945 17.3223 67.6201 18.2211 67.5027Z" fill="white"/>
<path fill-rule="evenodd" clip-rule="evenodd" d="M17.3416 63.8811C17.3416 63.8811 15.9752 67.4337 20.0743 66.8872C24.1734 66.3406 32.9182 66.6139 36.4707 67.2971C37.1412 67.426 36.744 64.701 39.3401 65.1109C41.9362 65.5208 40.3334 67.8048 41.2687 67.8618C42.092 67.912 43.5 67.8618 43.5 67.8618L47.0631 65.0283L45.0631 64.0283L38.0631 63.0283C38.0631 63.0283 29.8319 61.8011 25 62C20.1681 62.1989 17.3416 63.8811 17.3416 63.8811Z" fill="white"/>
<path d="M17.6892 67.3348C19.0556 69.521 25.3105 71.0919 26.0691 71.3829C31.661 73.5281 36.8222 70.8043 40.0691 69.3829C45.6763 66.9281 47.9032 63.754 47.2027 63.7823C43.987 63.912 34.5749 61.2084 30.0999 61.2084C23.7494 61.2084 23.888 61.0122 18.3199 62.6801C12.7518 64.348 14.1585 62.1895 14.1585 62.1895C14.1585 62.1895 14.8509 60.653 16.1087 59" stroke="white" stroke-width="6" stroke-linecap="round" stroke-linejoin="round"/>
<path d="M66.0017 57C66.0017 57 65.7721 61.1258 70.7254 61.1258" stroke="white" stroke-width="6" stroke-linecap="round" stroke-linejoin="round"/>
<path d="M24.6936 56C23.6453 57.0414 22.424 59.2556 23.2993 60.6761" stroke="white" stroke-width="6" stroke-linecap="round" stroke-linejoin="round"/>
<path d="M25.0914 59C24.8975 60.0473 24.1219 61.5955 23 61.4135" stroke="white" stroke-width="6" stroke-linecap="round" stroke-linejoin="round"/>
<path d="M21.3168 57C20.73 57.672 20.2794 58.4464 20 59.2626" stroke="white" stroke-width="6" stroke-linecap="round" stroke-linejoin="round"/>
<path d="M21.0153 62C20.9334 62.6493 21.1825 62.9249 21.7124 63.1313" stroke="white" stroke-width="6" stroke-linecap="round" stroke-linejoin="round"/>
<path d="M28.6971 59C28.6999 59.7063 28.4195 60.3409 28 60.8855" stroke="white" stroke-width="6" stroke-linecap="round" stroke-linejoin="round"/>
<path d="M21.859 74C21.2185 74.9419 20.6728 75.9489 20 76.866" stroke="white" stroke-width="6" stroke-linecap="round" stroke-linejoin="round"/>
<path d="M12.0206 62C11.9727 63.2398 11.9284 64.399 12.8727 65.3185" stroke="white" stroke-width="6" stroke-linecap="round" stroke-linejoin="round"/>
<path d="M15.0844 71C14.6343 71.5525 14.4223 72.2618 14 72.8101" stroke="white" stroke-width="6" stroke-linecap="round" stroke-linejoin="round"/>
<path d="M15.1679 74C14.8992 74.7347 14.9193 75.4926 15.4777 76.0364" stroke="white" stroke-width="6" stroke-linecap="round" stroke-linejoin="round"/>
<path d="M12 67C12.3974 68.3799 13.0177 69.7035 13.5492 70.9973" stroke="white" stroke-width="6" stroke-linecap="round" stroke-linejoin="round"/>
<path d="M17.9584 60.3872C17.5405 61.4654 16.8144 62.4591 15.7771 63.0269" stroke="white" stroke-width="6" stroke-linecap="round" stroke-linejoin="round"/>
<path d="M11 64C11.0895 65.1282 11.5858 66.082 12.1619 67.0168" stroke="white" stroke-width="6" stroke-linecap="round" stroke-linejoin="round"/>
<path d="M9 63C9.7499 64.4598 10.7567 65.896 11.0914 67.5252" stroke="white" stroke-width="6" stroke-linecap="round" stroke-linejoin="round"/>
<path d="M7.92951 63C8.0268 64.2863 7.85524 65.4701 7 66.4693" stroke="white" stroke-width="6" stroke-linecap="round" stroke-linejoin="round"/>
<path d="M9.48053 66C8.81331 67.518 8.61206 70.027 10.41 70.9023" stroke="white" stroke-width="6" stroke-linecap="round" stroke-linejoin="round"/>
<path d="M11.4717 69C11.1326 70.0558 10.9299 71.0361 10 71.7151" stroke="white" stroke-width="6" stroke-linecap="round" stroke-linejoin="round"/>
<path d="M10.0768 68C10.0012 69.3754 9.75726 70.7057 10.8514 71.771" stroke="white" stroke-width="6" stroke-linecap="round" stroke-linejoin="round"/>
<path d="M6.66265 63C5.3665 65.1944 6.1298 67.9648 7.59215 69.8633" stroke="white" stroke-width="6" stroke-linecap="round" stroke-linejoin="round"/>
<path d="M11.9295 71C11.9505 72.1996 11.7816 73.4426 11 74.3939" stroke="white" stroke-width="6" stroke-linecap="round" stroke-linejoin="round"/>
<path d="M14.007 73C13.6 74.1152 13.2932 75.2518 13 76.3939" stroke="white" stroke-width="6" stroke-linecap="round" stroke-linejoin="round"/>
<path d="M16.7816 78C16.4539 79.4064 16.4761 81.8066 15 82.5252" stroke="white" stroke-width="6" stroke-linecap="round" stroke-linejoin="round"/>
<path d="M29 56C30.4845 57.0341 31.1617 58.7011 31.9434 60.2235" stroke="white" stroke-width="6" stroke-linecap="round" stroke-linejoin="round"/>
<path d="M31 55C32.1449 56.246 32.4251 58.2943 34.4856 58.6956" stroke="white" stroke-width="6" stroke-linecap="round" stroke-linejoin="round"/>
<path d="M33 56C33.8613 56.5166 34.6875 57.0357 35.3238 57.8101" stroke="white" stroke-width="6" stroke-linecap="round" stroke-linejoin="round"/>
<path d="M36 59C37.3055 59.3066 38.4984 60.3576 39.7955 60.3576" stroke="white" stroke-width="6" stroke-linecap="round" stroke-linejoin="round"/>
<path d="M34 61C34.9184 61.3408 35.7316 62.0648 36.6336 62.3576" stroke="white" stroke-width="6" stroke-linecap="round" stroke-linejoin="round"/>
<path d="M32 58C32.6268 59.019 32.7002 60.2022 32.9295 61.3185" stroke="white" stroke-width="6" stroke-linecap="round" stroke-linejoin="round"/>
<path d="M29 58C29.4687 59.3323 30.2365 60.6388 31.6336 61.0922" stroke="white" stroke-width="6" stroke-linecap="round" stroke-linejoin="round"/>
<path d="M26.4648 58C26.0609 59.27 26 60.5366 26 61.8464" stroke="white" stroke-width="6" stroke-linecap="round" stroke-linejoin="round"/>
<path d="M25.0139 58C24.6648 58.9574 23.8533 59.6209 23 60.0364" stroke="white" stroke-width="6" stroke-linecap="round" stroke-linejoin="round"/>
<path d="M22.0478 56C21.1429 57.284 20.5569 58.9417 21.4281 60.299" stroke="white" stroke-width="6" stroke-linecap="round" stroke-linejoin="round"/>
<path d="M22.0108 55C21.3143 55.9838 20.6995 57.3514 21.1588 58.4693" stroke="white" stroke-width="6" stroke-linecap="round" stroke-linejoin="round"/>
<path d="M23.7955 55C22.0655 55.2321 20.3415 57.1839 20 58.8465" stroke="white" stroke-width="6" stroke-linecap="round" stroke-linejoin="round"/>
<path d="M21.1758 55C19.5827 56.1698 18.2255 57.9259 18 59.9023" stroke="white" stroke-width="6" stroke-linecap="round" stroke-linejoin="round"/>
<path d="M22.007 58C21.5525 59.0077 21.1831 59.9469 21 61.0168" stroke="white" stroke-width="6" stroke-linecap="round" stroke-linejoin="round"/>
<path d="M14.7816 63C14.3975 63.9112 13.7932 64.7956 13 65.4135" stroke="white" stroke-width="6" stroke-linecap="round" stroke-linejoin="round"/>
<path d="M18.3392 58.3513C17.4732 59.1143 16.0379 60.2802 15.666 61.0846" stroke="white" stroke-width="6" stroke-linecap="round" stroke-linejoin="round"/>
<path d="M23.2324 59C23.059 60.356 23 61.7089 23 63.0727" stroke="white" stroke-width="6" stroke-linecap="round" stroke-linejoin="round"/>
<path d="M23.8561 55C23.2227 56.0467 22.6097 57.6283 23.3139 58.771" stroke="white" stroke-width="6" stroke-linecap="round" stroke-linejoin="round"/>
<path d="M25.0944 57C25.1812 57.7882 25.0169 58.5607 25.0169 59.338" stroke="white" stroke-width="6" stroke-linecap="round" stroke-linejoin="round"/>
<path d="M26.925 55C25.41 55.774 26.0932 58.4809 26.6151 59.7515" stroke="white" stroke-width="6" stroke-linecap="round" stroke-linejoin="round"/>
<path d="M27.4648 57C27.818 58.2865 27.575 59.4251 27 60.5448" stroke="white" stroke-width="6" stroke-linecap="round" stroke-linejoin="round"/>
<path d="M29 57C29.1989 58.0473 29.3098 59.1045 29.3098 60.1677" stroke="white" stroke-width="6" stroke-linecap="round" stroke-linejoin="round"/>
<path d="M28 60C28.02 60.6047 28.1426 60.8005 28.6971 60.9805" stroke="white" stroke-width="6" stroke-linecap="round" stroke-linejoin="round"/>
<path d="M31 56C31.5746 56.8205 31.4951 57.8463 31.8521 58.7151" stroke="white" stroke-width="6" stroke-linecap="round" stroke-linejoin="round"/>
<path d="M30 55C31.416 55.5575 31.8246 56.7631 32.6336 57.866" stroke="white" stroke-width="6" stroke-linecap="round" stroke-linejoin="round"/>
<path d="M32 54.0006C33.1985 53.9754 33.8164 54.7783 34.4787 55.5844" stroke="white" stroke-width="6" stroke-linecap="round" stroke-linejoin="round"/>
<path d="M29 56C29.7972 56.25 30.6518 56.1508 31.4787 56.1508" stroke="white" stroke-width="6" stroke-linecap="round" stroke-linejoin="round"/>
<path d="M41 56C41.3838 57.4185 41.892 58.6823 43.4012 58.866" stroke="white" stroke-width="6" stroke-linecap="round" stroke-linejoin="round"/>
<path d="M44 59C44.9699 59.3858 45.4329 60.131 45.7816 61.0364" stroke="white" stroke-width="6" stroke-linecap="round" stroke-linejoin="round"/>
<path d="M16.8437 78C16.1967 79.1367 15.2506 81.769 16.9986 82.4498" stroke="white" stroke-width="6" stroke-linecap="round" stroke-linejoin="round"/>
<path d="M51.5561 76C51.4193 77.354 50.3931 78.2626 49 78.2626" stroke="white" stroke-width="6" stroke-linecap="round" stroke-linejoin="round"/>
<path d="M18.4573 75C18.012 76.0174 17.9126 77.0946 18.07 78.1677" stroke="white" stroke-width="6" stroke-linecap="round" stroke-linejoin="round"/>
<path d="M15.0139 69C14.3737 69.489 13.7586 69.6487 13 69.7542" stroke="white" stroke-width="6" stroke-linecap="round" stroke-linejoin="round"/>
<path d="M14.7399 70C14.097 71.1145 13.9033 72.3232 14.0427 73.5448" stroke="white" stroke-width="6" stroke-linecap="round" stroke-linejoin="round"/>
<path d="M14.7399 66C14.097 67.1145 13.9033 68.3232 14.0427 69.5448" stroke="white" stroke-width="6" stroke-linecap="round" stroke-linejoin="round"/>
<path d="M11.5492 65C11.1411 65.5987 10.7206 66.0311 10 66.1313" stroke="white" stroke-width="6" stroke-linecap="round" stroke-linejoin="round"/>
<path d="M11.6336 63C11.0695 63.9221 10.0883 64.5833 9 64.7347" stroke="white" stroke-width="6" stroke-linecap="round" stroke-linejoin="round"/>
<path d="M10.0139 61C9.37707 61.5501 8.73957 62.0969 8 62.5084" stroke="white" stroke-width="6" stroke-linecap="round" stroke-linejoin="round"/>
<path d="M51.3098 74C51.7832 74.6994 52.8138 79.1139 51 78.5252" stroke="white" stroke-width="6" stroke-linecap="round" stroke-linejoin="round"/>
<path d="M53 71C54.0514 72.1187 54.0242 73.1535 53.3873 74.3939" stroke="white" stroke-width="6" stroke-linecap="round" stroke-linejoin="round"/>
<path d="M53 67C53.5558 67.6977 54.6579 68.2308 55.5561 68.0559" stroke="white" stroke-width="6" stroke-linecap="round" stroke-linejoin="round"/>
<path d="M50 61C50.9027 61.5902 51.9729 61.7775 53.0209 61.905" stroke="white" stroke-width="6" stroke-linecap="round" stroke-linejoin="round"/>
<path d="M51 60C52.7293 60.9822 53.1124 62.3712 53.3238 64.2235" stroke="white" stroke-width="6" stroke-linecap="round" stroke-linejoin="round"/>
<path d="M53 60.0818C54.5189 59.4122 53.8804 63.0499 53.6971 63.8528" stroke="white" stroke-width="6" stroke-linecap="round" stroke-linejoin="round"/>
<path d="M55 61.3576C55.5362 61.0821 55.8539 60.4691 56.2393 60" stroke="white" stroke-width="6" stroke-linecap="round" stroke-linejoin="round"/>
<path d="M57 61C57.4135 62.0226 57.8246 63.077 58.7041 63.7906" stroke="white" stroke-width="6" stroke-linecap="round" stroke-linejoin="round"/>
<path d="M58 59C58.574 59.8828 58.5829 60.9401 58.6971 61.9414" stroke="white" stroke-width="6" stroke-linecap="round" stroke-linejoin="round"/>
<path d="M59.7746 60C59.5436 60.9147 59.2091 61.799 59 62.7151" stroke="white" stroke-width="6" stroke-linecap="round" stroke-linejoin="round"/>
<path d="M66.0026 51C65.9363 52.3501 67.1717 53.0399 68.2489 53.5643" stroke="white" stroke-width="6" stroke-linecap="round" stroke-linejoin="round"/>
<path d="M67.1758 52C66.4114 53.2121 65.5802 55.0862 64 55.3939" stroke="white" stroke-width="6" stroke-linecap="round" stroke-linejoin="round"/>
<path d="M66.823 48C65.8251 48.711 65.7834 51.2403 66.4357 52.299" stroke="white" stroke-width="6" stroke-linecap="round" stroke-linejoin="round"/>
<path d="M67.3168 49C67.8864 50.7149 67.0627 52.5981 66 53.9778" stroke="white" stroke-width="6" stroke-linecap="round" stroke-linejoin="round"/>
<path d="M65.9959 50C64.7809 51.0432 62.4222 54.0847 63.1299 55.8074" stroke="white" stroke-width="6" stroke-linecap="round" stroke-linejoin="round"/>
<path d="M65.7111 55C65.0146 56.2466 64.2859 57.3768 63 58.0922" stroke="white" stroke-width="6" stroke-linecap="round" stroke-linejoin="round"/>
<path d="M63.8046 53C62.835 55.3506 62.3325 58.2289 64.7341 59.7878" stroke="white" stroke-width="6" stroke-linecap="round" stroke-linejoin="round"/>
<path d="M65.4012 58C64.7689 59.174 63.9705 60.2981 63 61.2431" stroke="white" stroke-width="6" stroke-linecap="round" stroke-linejoin="round"/>
<path d="M64.0086 59C63.911 60.5427 64.6429 62.0979 66.1775 62.6956" stroke="white" stroke-width="6" stroke-linecap="round" stroke-linejoin="round"/>
<path d="M65.9295 61C66.2945 62.5528 65.6943 63.8716 65 65.2235" stroke="white" stroke-width="6" stroke-linecap="round" stroke-linejoin="round"/>
<path d="M65.385 60C63.7569 61.6687 63.4834 65.171 64.9977 67.0141" stroke="white" stroke-width="6" stroke-linecap="round" stroke-linejoin="round"/>
<path d="M66.4717 65C66.429 66.3302 65.8776 67.7457 65 68.771" stroke="white" stroke-width="6" stroke-linecap="round" stroke-linejoin="round"/>
<path d="M66.9295 63C68.5194 64.6699 66.9599 67.398 66 69.0336" stroke="white" stroke-width="6" stroke-linecap="round" stroke-linejoin="round"/>
<path d="M65.257 66C64.6152 67.3304 61.8334 71.2946 63.5529 72.4108" stroke="white" stroke-width="6" stroke-linecap="round" stroke-linejoin="round"/>
<path d="M66.0914 68C66.1146 69.5771 66.3226 73.1286 64 73.1286" stroke="white" stroke-width="6" stroke-linecap="round" stroke-linejoin="round"/>
<path d="M62.7746 69C62.549 71.26 62.2902 73.5272 62 75.7879" stroke="white" stroke-width="6" stroke-linecap="round" stroke-linejoin="round"/>
<path d="M64.9574 71C64.5442 73.1356 61.8943 74.0054 60 74.6202" stroke="white" stroke-width="6" stroke-linecap="round" stroke-linejoin="round"/>
<path d="M61.09 72C61.161 73.5337 60.4593 76.1719 62.097 77.1286" stroke="white" stroke-width="6" stroke-linecap="round" stroke-linejoin="round"/>
<path d="M59.3307 75C59.342 77.4638 58.2648 79.1769 56 80.2794" stroke="white" stroke-width="6" stroke-linecap="round" stroke-linejoin="round"/>
<path d="M56.2706 76C55.3056 77.2266 54.0902 80.6174 56.0382 81.4303" stroke="white" stroke-width="6" stroke-linecap="round" stroke-linejoin="round"/>
<path d="M57.5422 75C58.8412 75.2659 57.5461 77.6718 57 78.4693" stroke="white" stroke-width="6" stroke-linecap="round" stroke-linejoin="round"/>
<path d="M54.6971 78C54.4146 79.1979 54.3989 80.4549 54 81.6202" stroke="white" stroke-width="6" stroke-linecap="round" stroke-linejoin="round"/>
<path d="M52.2393 79C51.8716 80.0442 52.0087 82.3483 51 82.5448" stroke="white" stroke-width="6" stroke-linecap="round" stroke-linejoin="round"/>
<path d="M51.1549 79C51.4765 80.3447 51.2738 81.7397 51 83.0727" stroke="white" stroke-width="6" stroke-linecap="round" stroke-linejoin="round"/>
<path d="M52 69.8754C53.1534 69.1553 52.5475 65.6859 52.3098 67.5374C52.9686 69.1097 53.5411 70.7647 54.3238 72.2889" stroke="white" stroke-width="6" stroke-linecap="round" stroke-linejoin="round"/>
<path d="M54.859 71C54.7315 72.3859 53.5907 73.3191 53 74.4693" stroke="white" stroke-width="6" stroke-linecap="round" stroke-linejoin="round"/>
<path d="M53 73C53.915 73.7068 55.4348 74.5838 56.6406 74.5838" stroke="white" stroke-width="6" stroke-linecap="round" stroke-linejoin="round"/>
<path d="M56 75C56.6464 76.2677 56.5626 77.7943 56.3098 79.1481" stroke="white" stroke-width="6" stroke-linecap="round" stroke-linejoin="round"/>
<path d="M55 72C55.7587 73.7905 58.0734 73.5838 59.725 73.5838" stroke="white" stroke-width="6" stroke-linecap="round" stroke-linejoin="round"/>
<path d="M58 72C59.353 72.4316 59.4746 73.7431 59.859 74.866" stroke="white" stroke-width="6" stroke-linecap="round" stroke-linejoin="round"/>
<path d="M60 71.6788C60.9831 71.7834 61.8278 71.344 62.7111 71" stroke="white" stroke-width="6" stroke-linecap="round" stroke-linejoin="round"/>
<path d="M60.1549 71C60.5077 71.7427 60.4914 72.7001 60 73.338" stroke="white" stroke-width="6" stroke-linecap="round" stroke-linejoin="round"/>
<path d="M57.0844 70C56.9237 70.6742 56.5455 71.0035 56 71.3576" stroke="white" stroke-width="6" stroke-linecap="round" stroke-linejoin="round"/>
<path d="M54 69C54.5076 70.2222 55.7097 69.9643 56.7885 69.7542" stroke="white" stroke-width="6" stroke-linecap="round" stroke-linejoin="round"/>
<path d="M8 58C8.60977 59.775 8.69713 61.5831 8.69713 63.4303" stroke="white" stroke-width="6" stroke-linecap="round" stroke-linejoin="round"/>
<path d="M7.70409 60C7.27982 60.6943 6.57189 61.1024 6 61.6592" stroke="white" stroke-width="6" stroke-linecap="round" stroke-linejoin="round"/>
<path d="M8.23238 61C8.24052 61.4714 8.06646 61.9046 8 62.3576" stroke="white" stroke-width="6" stroke-linecap="round" stroke-linejoin="round"/>
<path d="M8.10004 60C7.8163 61.0743 6.2155 62.8473 7.48037 63.771" stroke="white" stroke-width="6" stroke-linecap="round" stroke-linejoin="round"/>
<path d="M7.16885 61C6.67532 61.938 5.72042 62.4857 5 63.1872" stroke="white" stroke-width="6" stroke-linecap="round" stroke-linejoin="round"/>
<path d="M7.47171 63C6.86132 64.0335 6.23906 65.0038 6 66.1677" stroke="white" stroke-width="6" stroke-linecap="round" stroke-linejoin="round"/>
<path d="M8.26565 66C7.91075 67.3793 7.88722 68.8165 8.34311 70.1481" stroke="white" stroke-width="6" stroke-linecap="round" stroke-linejoin="round"/>
<path d="M10.007 68C9.61359 69.141 9.17382 70.2846 9 71.4693" stroke="white" stroke-width="6" stroke-linecap="round" stroke-linejoin="round"/>
<path d="M10.1983 70C9.92588 71.8826 9.73054 73.7802 11.0504 75.2794" stroke="white" stroke-width="6" stroke-linecap="round" stroke-linejoin="round"/>
<path d="M12.1619 72C11.8441 73.4501 11.4008 74.868 11 76.299" stroke="white" stroke-width="6" stroke-linecap="round" stroke-linejoin="round"/>
<path d="M13.0793 74C12.8274 75.7103 13.1585 77.7731 14.3186 79.1286" stroke="white" stroke-width="6" stroke-linecap="round" stroke-linejoin="round"/>
<path d="M50.4648 81C50.2049 82.3231 50 83.6407 50 84.9973" stroke="white" stroke-width="6" stroke-linecap="round" stroke-linejoin="round"/>
<path d="M52.6197 80C52.7478 81.5134 52.5414 82.8932 52 84.299" stroke="white" stroke-width="6" stroke-linecap="round" stroke-linejoin="round"/>
<path d="M55.718 79C54.829 80.515 53.674 82.8611 52 83.6761" stroke="white" stroke-width="6" stroke-linecap="round" stroke-linejoin="round"/>
<path d="M57 77C57.3655 77.9279 57.1158 78.9214 57.3098 79.866" stroke="white" stroke-width="6" stroke-linecap="round" stroke-linejoin="round"/>
<path d="M58 67C58.7536 68.4283 58.9217 70.0618 59.3168 71.6006" stroke="white" stroke-width="6" stroke-linecap="round" stroke-linejoin="round"/>
<path d="M55 66C55.8435 66.7238 57.056 66.566 58.0984 66.6788" stroke="white" stroke-width="6" stroke-linecap="round" stroke-linejoin="round"/>
<path d="M54 64C55.0602 65.3141 54.9002 67.0414 55.4717 68.5252" stroke="white" stroke-width="6" stroke-linecap="round" stroke-linejoin="round"/>
<path d="M52 63C52.3904 64.2575 53.233 66.3813 54.9434 65.7151" stroke="white" stroke-width="6" stroke-linecap="round" stroke-linejoin="round"/>
<path d="M49 61C49.5743 61.4234 50.2716 61.5384 50.9365 61.7542" stroke="white" stroke-width="6" stroke-linecap="round" stroke-linejoin="round"/>
<path d="M50.7041 71C50.372 71.9688 49.8862 73.122 49 73.6397" stroke="white" stroke-width="6" stroke-linecap="round" stroke-linejoin="round"/>
<path d="M52.5422 69C52.9269 70.1389 52.2168 71.1122 52 72.1677" stroke="white" stroke-width="6" stroke-linecap="round" stroke-linejoin="round"/>
<path d="M53 66C53.8028 66.9342 54.9116 67.4841 55.7885 68.338" stroke="white" stroke-width="6" stroke-linecap="round" stroke-linejoin="round"/>
<path d="M56 65.0311C57.6953 64.6347 58.0139 68.1333 58.0139 69.3301" stroke="white" stroke-width="6" stroke-linecap="round" stroke-linejoin="round"/>
<path d="M57 62C58.6606 62.9655 58.3626 66.3161 60.4082 66.6006" stroke="white" stroke-width="6" stroke-linecap="round" stroke-linejoin="round"/>
<path d="M60.0019 65C59.9528 66.3759 60.8653 68.5569 61.2413 70.204" stroke="white" stroke-width="6" stroke-linecap="round" stroke-linejoin="round"/>
<path d="M58.3098 69C58.3915 69.8815 58.2178 70.7159 58 71.5643" stroke="white" stroke-width="6" stroke-linecap="round" stroke-linejoin="round"/>
<path d="M62 67C62.4135 67.9698 63.3755 68.431 64.2463 68.9609" stroke="white" stroke-width="6" stroke-linecap="round" stroke-linejoin="round"/>
<path d="M63 65C63.8907 66.0959 64.0764 68.074 63.5422 69.3744" stroke="white" stroke-width="6" stroke-linecap="round" stroke-linejoin="round"/>
<path d="M63 64.5279C64.0825 65.1132 65.0209 64.5614 65.9434 64" stroke="white" stroke-width="6" stroke-linecap="round" stroke-linejoin="round"/>
<path d="M66 64C66.4056 64.3917 66.7392 64.8339 67.0844 65.2822" stroke="white" stroke-width="6" stroke-linecap="round" stroke-linejoin="round"/>
<path d="M63.0844 62C63.1777 63.4628 62.9791 64.8533 62 65.9973" stroke="white" stroke-width="6" stroke-linecap="round" stroke-linejoin="round"/>
<path d="M61.5103 59C60.1724 60.1199 59.5057 62.2581 60.4259 63.7515" stroke="white" stroke-width="6" stroke-linecap="round" stroke-linejoin="round"/>
<path d="M62 57C63.0162 58.1979 62.798 59.7237 63.007 61.1481" stroke="white" stroke-width="6" stroke-linecap="round" stroke-linejoin="round"/>
<path d="M61.3873 61C61.5835 62.4416 61 63.798 61 65.2235" stroke="white" stroke-width="6" stroke-linecap="round" stroke-linejoin="round"/>
<path d="M60.7938 62.0457C58.988 61.4601 55.7046 66.6855 57.5405 67.4005" stroke="white" stroke-width="6" stroke-linecap="round" stroke-linejoin="round"/>
<path d="M60.8521 66C60.8464 67.0234 60.3853 68.0035 60 68.9414" stroke="white" stroke-width="6" stroke-linecap="round" stroke-linejoin="round"/>
<path d="M13.1124 60C12.2032 61.248 11.5833 62.9805 12.3378 64.4498" stroke="white" stroke-width="6" stroke-linecap="round" stroke-linejoin="round"/>
<path d="M10.3873 61C10.2263 61.6566 10 62.2885 10 62.9609" stroke="white" stroke-width="6" stroke-linecap="round" stroke-linejoin="round"/>
<path d="M9.16189 60C8.68652 60.4004 8.28409 60.9552 8 61.5084" stroke="white" stroke-width="6" stroke-linecap="round" stroke-linejoin="round"/>
<path d="M12.6266 62C12.1307 62.8266 11.6845 63.6716 11 64.338" stroke="white" stroke-width="6" stroke-linecap="round" stroke-linejoin="round"/>
<path d="M9.19877 62C8.77637 63.5851 8.98918 65.2653 10.2057 66.4498" stroke="white" stroke-width="6" stroke-linecap="round" stroke-linejoin="round"/>
<path d="M10.007 65C9.60637 65.9585 9.25358 66.9537 9 67.9414" stroke="white" stroke-width="6" stroke-linecap="round" stroke-linejoin="round"/>
<path d="M23.0951 75C22.8616 76.3821 23.0449 77.8599 23.7922 79.0727" stroke="white" stroke-width="6" stroke-linecap="round" stroke-linejoin="round"/>
<path d="M50.029 70C49.9487 70.8679 50.0219 71.5699 50.4163 72.338" stroke="white" stroke-width="6" stroke-linecap="round" stroke-linejoin="round"/>
<path d="M16 70C16.5563 71.1727 16.6192 72.7093 17.5864 73.651" stroke="white" stroke-width="6" stroke-linecap="round" stroke-linejoin="round"/>
<path d="M17.7401 73C16.6922 73.6918 15.5173 74.3187 15 73.983" stroke="white" stroke-width="6" stroke-linecap="round" stroke-linejoin="round"/>
<path d="M13 73C13.7297 74.2426 14.4082 75.6349 15.4517 76.651" stroke="white" stroke-width="6" stroke-linecap="round" stroke-linejoin="round"/>
<path d="M16.0683 75C16.0683 75.8425 16.0683 76.6851 16.0683 77.5276" stroke="white" stroke-width="6" stroke-linecap="round" stroke-linejoin="round"/>
<path d="M24 81.3701C24.2436 80.1518 24.436 79.0483 25.1537 78" stroke="white" stroke-width="6" stroke-linecap="round" stroke-linejoin="round"/>
<path d="M11 66.2297C11.0987 65.0992 11.8639 63 13.3075 63" stroke="white" stroke-width="6" stroke-linecap="round" stroke-linejoin="round"/>
<path d="M10 62.9659C10.5099 62.3061 10.9863 61.5843 11.5864 61" stroke="white" stroke-width="6" stroke-linecap="round" stroke-linejoin="round"/>
<path d="M34 75C33.9954 76.0202 34.3519 77.0547 35 78" stroke="white" stroke-width="6" stroke-linecap="round" stroke-linejoin="round"/>
<path d="M35 77C34.5047 78.37 33.6647 79.6705 33 81" stroke="white" stroke-width="6" stroke-linecap="round" stroke-linejoin="round"/>
<path d="M36 76C35.5405 77.1882 34.1512 79.9491 35.7453 81" stroke="white" stroke-width="6" stroke-linecap="round" stroke-linejoin="round"/>
<path d="M39 77C38.3552 78.3125 38 79.6531 38 81" stroke="white" stroke-width="6" stroke-linecap="round" stroke-linejoin="round"/>
<path d="M17.0517 79C16.8558 80.797 17.2266 82.5501 18 84" stroke="white" stroke-width="6" stroke-linecap="round" stroke-linejoin="round"/>
<path d="M20 81C20.6607 82.6046 19.7902 84.4865 20.2324 86" stroke="white" stroke-width="6" stroke-linecap="round" stroke-linejoin="round"/>
<path d="M21 82C21.1703 83.6162 21.4871 86.3017 23 87" stroke="white" stroke-width="6" stroke-linecap="round" stroke-linejoin="round"/>
<path d="M26 84C27.1782 85.1298 26.9888 86.5981 26.9888 88" stroke="white" stroke-width="6" stroke-linecap="round" stroke-linejoin="round"/>
<path d="M25 84C25.3505 85.6715 26.2578 87.3385 28 88" stroke="white" stroke-width="6" stroke-linecap="round" stroke-linejoin="round"/>
<path d="M30 85C30.5281 86.2899 30.8019 87.6398 31 89" stroke="white" stroke-width="6" stroke-linecap="round" stroke-linejoin="round"/>
<path d="M33.4799 84C34.0396 85.709 34.4668 88.9252 33 90" stroke="white" stroke-width="6" stroke-linecap="round" stroke-linejoin="round"/>
<path d="M37 85C36.7026 85.9531 35.7707 87.8529 35 88" stroke="white" stroke-width="6" stroke-linecap="round" stroke-linejoin="round"/>
<path d="M39 85C38.6943 85.9958 38.1829 86.9634 38 88" stroke="white" stroke-width="6" stroke-linecap="round" stroke-linejoin="round"/>
<path d="M42 84C41.6982 85.3501 41.3039 87.2318 40 88" stroke="white" stroke-width="6" stroke-linecap="round" stroke-linejoin="round"/>
<path d="M45 85C44.4001 86.0203 43.7602 87.0634 43 88" stroke="white" stroke-width="6" stroke-linecap="round" stroke-linejoin="round"/>
<path d="M50 75C49.3821 75.9606 48.2159 76.6623 47 77" stroke="white" stroke-width="6" stroke-linecap="round" stroke-linejoin="round"/>
<path d="M47 74C45.1382 74.4295 44.6324 77.3821 45.2501 79" stroke="white" stroke-width="6" stroke-linecap="round" stroke-linejoin="round"/>
<path d="M49 74C47.7975 75.1607 46.8182 76.4347 47.0286 78" stroke="white" stroke-width="6" stroke-linecap="round" stroke-linejoin="round"/>
<path d="M32 83C31.2743 83.5392 29.1368 85.1085 30.3815 86" stroke="white" stroke-width="6" stroke-linecap="round" stroke-linejoin="round"/>
<path d="M32 85C31.5175 85.937 30.6691 86.8005 31.1356 88" stroke="white" stroke-width="6" stroke-linecap="round" stroke-linejoin="round"/>
<path d="M32.0372 86C31.9838 87.1632 31.8299 88.2943 33 89" stroke="white" stroke-width="6" stroke-linecap="round" stroke-linejoin="round"/>
<path d="M33 87C32.3893 88.2317 29.8543 90.5769 29 89.8697" stroke="white" stroke-width="6" stroke-linecap="round" stroke-linejoin="round"/>
<path d="M33 82C32.2308 83.1425 29.9475 84.7548 31.5682 86" stroke="white" stroke-width="6" stroke-linecap="round" stroke-linejoin="round"/>
<path d="M32 81C30.2905 81.6439 28.0079 84.1213 29.4644 86" stroke="white" stroke-width="6" stroke-linecap="round" stroke-linejoin="round"/>
<path d="M32.6202 83C31.8893 84.0299 31.5711 85.1182 33 86" stroke="white" stroke-width="6" stroke-linecap="round" stroke-linejoin="round"/>
<path d="M33.0073 83C32.9495 84.0213 33.2468 85.0021 33.4272 86" stroke="white" stroke-width="6" stroke-linecap="round" stroke-linejoin="round"/>
<path d="M41 83C40.2281 83.9598 39.6185 84.9879 39 86" stroke="white" stroke-width="6" stroke-linecap="round" stroke-linejoin="round"/>
<path d="M39 81C37.7749 81.9731 36.4319 84.5357 37.2513 86" stroke="white" stroke-width="6" stroke-linecap="round" stroke-linejoin="round"/>
<path d="M42 75C41.3833 76.842 40.7676 78.971 41.0874 81" stroke="white" stroke-width="6" stroke-linecap="round" stroke-linejoin="round"/>
<path d="M20 74C19.4396 75.2137 18.2428 76.3412 19.6848 77" stroke="white" stroke-width="6" stroke-linecap="round" stroke-linejoin="round"/>
<path d="M32.012 86C31.9073 86.6944 32.5109 87.3542 33 88" stroke="white" stroke-width="6" stroke-linecap="round" stroke-linejoin="round"/>
<path d="M34 86C32.4853 86.8307 30.4948 87.1484 29 88" stroke="white" stroke-width="6" stroke-linecap="round" stroke-linejoin="round"/>
<path d="M37 82C38.267 83.1323 39.3398 84.497 40 86" stroke="white" stroke-width="6" stroke-linecap="round" stroke-linejoin="round"/>
<path d="M24 85C24.1285 85.4957 25.3497 89.4038 25.84 88.9658C26.0663 88.7637 25.8491 88.1971 26 87.894" stroke="white" stroke-width="6" stroke-linecap="round" stroke-linejoin="round"/>
<path d="M24 84C25.3827 85.1162 25.474 87.1183 27 88" stroke="white" stroke-width="6" stroke-linecap="round" stroke-linejoin="round"/>
<path d="M29 87C29.5808 87.8847 29.6661 88.9983 30 90" stroke="white" stroke-width="6" stroke-linecap="round" stroke-linejoin="round"/>
<path d="M32.0345 87C31.9283 87.6773 32.1327 88.3372 32.1327 89" stroke="white" stroke-width="6" stroke-linecap="round" stroke-linejoin="round"/>
<path d="M34 87C33.8424 88.0985 33.4664 89.0839 33 90" stroke="white" stroke-width="6" stroke-linecap="round" stroke-linejoin="round"/>
<path d="M36 86C35.7287 86.725 35.3819 87.3773 35 88" stroke="white" stroke-width="6" stroke-linecap="round" stroke-linejoin="round"/>
<path d="M37 85C36.0788 86.7296 34.9859 88.324 34 90" stroke="white" stroke-width="6" stroke-linecap="round" stroke-linejoin="round"/>
<path d="M39 86C38.0362 87.5325 35.934 88.39 34 89" stroke="white" stroke-width="6" stroke-linecap="round" stroke-linejoin="round"/>
<path d="M32.1046 86C31.7895 86.9007 32.2148 87.4898 33 88" stroke="white" stroke-width="6" stroke-linecap="round" stroke-linejoin="round"/>
<path d="M27 85C27.5224 85.7759 28.1579 86.579 29 87" stroke="white" stroke-width="6" stroke-linecap="round" stroke-linejoin="round"/>
<path d="M21 82C21.9459 83.0421 22.9716 84.0359 24 85" stroke="white" stroke-width="6" stroke-linecap="round" stroke-linejoin="round"/>
<path d="M15 75C14.2283 76.7074 13.134 78.4198 12 80" stroke="white" stroke-width="6" stroke-linecap="round" stroke-linejoin="round"/>
<path d="M16 78C16.3176 79.9994 17.0822 82.2736 18 84" stroke="white" stroke-width="6" stroke-linecap="round" stroke-linejoin="round"/>
<path d="M28 73C28.9316 75.0596 29.4734 77.8803 28.4367 80" stroke="white" stroke-width="6" stroke-linecap="round" stroke-linejoin="round"/>
<path d="M26 74C26.2337 75.8273 26.6285 77.9877 28 79" stroke="white" stroke-width="6" stroke-linecap="round" stroke-linejoin="round"/>
<path d="M31.341 73C32.1465 75.7154 32.4058 79.5268 31 82" stroke="white" stroke-width="6" stroke-linecap="round" stroke-linejoin="round"/>
<path d="M34.551 74C35.6163 76.6008 34.9207 82 31 82" stroke="white" stroke-width="6" stroke-linecap="round" stroke-linejoin="round"/>
<path d="M33.3351 74C33.2842 75.5936 32.659 77.4418 33.2577 79" stroke="white" stroke-width="6" stroke-linecap="round" stroke-linejoin="round"/>
<path d="M36.8709 75C37.3107 77.0339 36.6122 79.0665 35 80" stroke="white" stroke-width="6" stroke-linecap="round" stroke-linejoin="round"/>
<path d="M34 73C32.715 74.8493 32 76.7931 32 79" stroke="white" stroke-width="6" stroke-linecap="round" stroke-linejoin="round"/>
<path d="M30 72C28.8997 73.8965 28.4523 76.288 30 78" stroke="white" stroke-width="6" stroke-linecap="round" stroke-linejoin="round"/>
<path d="M22 75C20.8997 76.8965 20.4523 79.288 22 81" stroke="white" stroke-width="6" stroke-linecap="round" stroke-linejoin="round"/>
<path d="M27 72C25.6849 73.1181 23.2172 75.1384 24.2435 77" stroke="white" stroke-width="6" stroke-linecap="round" stroke-linejoin="round"/>
<path d="M23.4539 71C22.5739 72.8202 22.9138 74.7734 25 76" stroke="white" stroke-width="6" stroke-linecap="round" stroke-linejoin="round"/>
<path d="M24 72C24.591 73.4289 25.1743 74.7688 27 75" stroke="white" stroke-width="6" stroke-linecap="round" stroke-linejoin="round"/>
<path d="M25 72C26.1695 72.7195 26.7711 74.5542 28 75" stroke="white" stroke-width="6" stroke-linecap="round" stroke-linejoin="round"/>
<path d="M27.274 76C27.1084 76.9147 26.7121 78.2322 27.3514 79" stroke="white" stroke-width="6" stroke-linecap="round" stroke-linejoin="round"/>
<path d="M18.5764 78C18.294 79.5456 17.227 81.8374 19 83" stroke="white" stroke-width="6" stroke-linecap="round" stroke-linejoin="round"/>
<path d="M22 80C21.4112 81.342 21.176 82.971 20 84" stroke="white" stroke-width="6" stroke-linecap="round" stroke-linejoin="round"/>
<path d="M19.2968 79C18.5939 81.0228 19.1307 83.9766 21 85" stroke="white" stroke-width="6" stroke-linecap="round" stroke-linejoin="round"/>
<path d="M24 81C25.9159 82.7517 24.596 85.1238 24 87" stroke="white" stroke-width="6" stroke-linecap="round" stroke-linejoin="round"/>
<path d="M23 83C22.9964 85.3518 23.5791 88.6542 26 89" stroke="white" stroke-width="6" stroke-linecap="round" stroke-linejoin="round"/>
<path d="M26 82C26.3863 84.183 27.7435 87.9868 30 89" stroke="white" stroke-width="6" stroke-linecap="round" stroke-linejoin="round"/>
<path d="M29 82C30.4155 83.5014 31.7318 86.229 30.5286 88" stroke="white" stroke-width="6" stroke-linecap="round" stroke-linejoin="round"/>
<path d="M32.6345 82C33.2892 84.3096 33.0564 86.9281 32 89" stroke="white" stroke-width="6" stroke-linecap="round" stroke-linejoin="round"/>
<path d="M29.7977 81C29.537 82.3142 28.0272 85.9425 30 87" stroke="white" stroke-width="6" stroke-linecap="round" stroke-linejoin="round"/>
<path d="M30 78C27.8143 78.7451 24.7038 82.7985 26.5746 85" stroke="white" stroke-width="6" stroke-linecap="round" stroke-linejoin="round"/>
<path d="M26 78C24.424 78.9478 22.9036 84.0056 25.0919 85" stroke="white" stroke-width="6" stroke-linecap="round" stroke-linejoin="round"/>
<path d="M27.4497 81C27.0627 82.661 26.4545 86.1013 28 87" stroke="white" stroke-width="6" stroke-linecap="round" stroke-linejoin="round"/>
<path d="M22 78C21.3735 79.161 20.553 80.7571 21.2933 82" stroke="white" stroke-width="6" stroke-linecap="round" stroke-linejoin="round"/>
<path d="M19 76C18.4053 77.0756 17.5441 79.2894 16 78.9685" stroke="white" stroke-width="6" stroke-linecap="round" stroke-linejoin="round"/>
<path d="M35.1047 79C34.7188 81.3254 35.4103 83.3644 37 85" stroke="white" stroke-width="6" stroke-linecap="round" stroke-linejoin="round"/>
<path d="M38.6878 81C39.2326 82.5115 39.1014 84.7132 38 86" stroke="white" stroke-width="6" stroke-linecap="round" stroke-linejoin="round"/>
<path d="M41.5661 80C42.3121 81.4885 42.0788 83.6921 41 85" stroke="white" stroke-width="6" stroke-linecap="round" stroke-linejoin="round"/>
<path d="M43.8944 80C44.2997 82.3595 43.5807 86.4339 41 87" stroke="white" stroke-width="6" stroke-linecap="round" stroke-linejoin="round"/>
<path d="M39 81C38.1421 83.2963 35 85.547 35 88" stroke="white" stroke-width="6" stroke-linecap="round" stroke-linejoin="round"/>
<path d="M34.9627 81C35.2085 82.2489 34.2046 87.7822 33 86.9065" stroke="white" stroke-width="6" stroke-linecap="round" stroke-linejoin="round"/>
<path d="M38 85C37.5917 86.7852 37.027 88.6531 36 90" stroke="white" stroke-width="6" stroke-linecap="round" stroke-linejoin="round"/>
<path d="M39 88C40.4784 86.3818 41.3421 83 44 83" stroke="white" stroke-width="6" stroke-linecap="round" stroke-linejoin="round"/>
<path d="M45 81C43.545 83.0879 42.1514 85.6369 40 87" stroke="white" stroke-width="6" stroke-linecap="round" stroke-linejoin="round"/>
<path d="M40 83C39.9286 83.9481 37.2424 90.7467 37 88.5741" stroke="white" stroke-width="6" stroke-linecap="round" stroke-linejoin="round"/>
<path d="M43 87C44.0322 86.0496 44.9139 84.8611 46 84" stroke="white" stroke-width="6" stroke-linecap="round" stroke-linejoin="round"/>
<path d="M47 82C45.8698 83.6069 44.8737 86.0745 43 87" stroke="white" stroke-width="6" stroke-linecap="round" stroke-linejoin="round"/>
<path d="M45.107 83C45.0627 84.0008 45.0296 84.998 45.0296 86" stroke="white" stroke-width="6" stroke-linecap="round" stroke-linejoin="round"/>
<path d="M46.3873 80C46.634 81.6726 46.361 83.3587 46 85" stroke="white" stroke-width="6" stroke-linecap="round" stroke-linejoin="round"/>
<path d="M48.9929 80C49.1028 82.252 47.9457 84.7287 45 85" stroke="white" stroke-width="6" stroke-linecap="round" stroke-linejoin="round"/>
<path d="M49 79C48.7705 80.3554 48.4698 81.7189 48 83" stroke="white" stroke-width="6" stroke-linecap="round" stroke-linejoin="round"/>
<path d="M48 79C48.0548 80.7426 49.3606 82.2576 51 83" stroke="white" stroke-width="6" stroke-linecap="round" stroke-linejoin="round"/>
<path d="M49 82C48.1068 83.1204 47.642 85.7065 47 86" stroke="white" stroke-width="6" stroke-linecap="round" stroke-linejoin="round"/>
<path d="M49 83C48.2077 84.5464 46.9145 85.3865 45 86" stroke="white" stroke-width="6" stroke-linecap="round" stroke-linejoin="round"/>
<path d="M47 83C48.5078 82.7374 49.7047 81.7196 51 81" stroke="white" stroke-width="6" stroke-linecap="round" stroke-linejoin="round"/>
<path d="M48 79C48.9489 77.8107 50.6309 77.2567 52 77" stroke="white" stroke-width="6" stroke-linecap="round" stroke-linejoin="round"/>
<path d="M46 76C44.9494 77.6094 45.0004 79.2986 45.0004 81" stroke="white" stroke-width="6" stroke-linecap="round" stroke-linejoin="round"/>
<path d="M44 77C42.5999 77.924 41.3551 79.0339 40 80" stroke="white" stroke-width="6" stroke-linecap="round" stroke-linejoin="round"/>
<path d="M41 78C39.1851 78.5577 38.3756 80.7553 39.5501 82" stroke="white" stroke-width="6" stroke-linecap="round" stroke-linejoin="round"/>
<path d="M38 79C37.4731 80.0709 36.5627 80.955 36 82" stroke="white" stroke-width="6" stroke-linecap="round" stroke-linejoin="round"/>
<path d="M35 79C34.6172 80.0838 32.1572 81.9909 33.3005 83" stroke="white" stroke-width="6" stroke-linecap="round" stroke-linejoin="round"/>
<path d="M33 79C31.4004 80.2888 28.3084 83.6293 31.1681 85" stroke="white" stroke-width="6" stroke-linecap="round" stroke-linejoin="round"/>
<path d="M31 78C29.6646 78.4196 28.3531 80.7168 29.3515 82" stroke="white" stroke-width="6" stroke-linecap="round" stroke-linejoin="round"/>
<path d="M27 76C24.6621 77.1411 24.5425 80.3147 25.7732 82" stroke="white" stroke-width="6" stroke-linecap="round" stroke-linejoin="round"/>
<path d="M25 78.1449C22.4768 77.1344 21.6036 81.6949 22.1615 83" stroke="white" stroke-width="6" stroke-linecap="round" stroke-linejoin="round"/>
<path d="M22 77C21.3177 77.7738 20 78.8406 20 80" stroke="white" stroke-width="6" stroke-linecap="round" stroke-linejoin="round"/>
<path d="M21 76C20.2584 76.5312 20.1222 77.2332 20 78" stroke="white" stroke-width="6" stroke-linecap="round" stroke-linejoin="round"/>
<path d="M31 78.0087C28.0388 77.7974 27.2646 81.4723 28.7004 83" stroke="white" stroke-width="6" stroke-linecap="round" stroke-linejoin="round"/>
<path d="M31.9994 77C32.0187 78.4072 31.5754 79.8582 31 81" stroke="white" stroke-width="6" stroke-linecap="round" stroke-linejoin="round"/>
<path d="M34 77C34.8313 78.5884 34.4969 80.3506 35 82" stroke="white" stroke-width="6" stroke-linecap="round" stroke-linejoin="round"/>
<path d="M34 76C33.4207 76.9351 33 77.8988 33 79" stroke="white" stroke-width="6" stroke-linecap="round" stroke-linejoin="round"/>
<path fill-rule="evenodd" clip-rule="evenodd" d="M38.8135 3.00158C21.3716 2.83471 7.10396 15.9414 6.86745 33.5809C6.90973 36.7814 8.45158 40.3662 7.42657 43.6038C6.4016 46.8415 4.79895 48.0808 5.02081 54.901C5.46913 57.3833 4.99395 69.5372 13.6771 76.2942C15.2568 77.9481 19.2027 86.3614 29.3715 87.6033C33.6656 88.1278 44.076 83.4429 47.2172 81.4806C48.4624 80.7028 55.6032 79.5407 60.6771 74.2942C65.7509 69.0477 66.6664 62.2893 66.6664 62.2892L67.0784 62.2992C73.1314 62.2992 78.0382 57.5992 78.0382 51.8013C77.9355 47.9133 75.8114 44.3114 72.1514 42.5058C72.2289 42.0197 72.3197 41.5354 72.384 41.0475C72.5575 39.7299 72.6463 38.402 72.6457 37.0739C72.6457 19.8429 64.1118 5.34939 41.5777 3.16236C40.0384 3.03295 40.959 3.09823 38.8135 3.00158Z" fill="white" stroke="white"/>
<path fill-rule="evenodd" clip-rule="evenodd" d="M38.8135 3.00158C21.3716 2.83471 7.10396 15.9414 6.86745 33.5809C6.90973 36.7814 8.45158 40.3662 7.42657 43.6038C6.4016 46.8415 4.79895 48.0808 5.02081 54.901C5.46913 57.3833 4.99395 69.5372 13.6771 76.2942C15.2568 77.9481 19.2027 86.3614 29.3715 87.6033C33.6656 88.1278 44.076 83.4429 47.2172 81.4806C48.4624 80.7028 55.6032 79.5407 60.6771 74.2942C65.7509 69.0477 66.6664 62.2893 66.6664 62.2892L67.0784 62.2992C73.1314 62.2992 78.0382 57.5992 78.0382 51.8013C77.9355 47.9133 75.8114 44.3114 72.1514 42.5058C72.2289 42.0197 72.3197 41.5354 72.384 41.0475C72.5575 39.7299 72.6463 38.402 72.6457 37.0739C72.6457 19.8429 64.1118 5.34939 41.5777 3.16236C40.0384 3.03295 40.959 3.09823 38.8135 3.00158Z" fill="white" stroke="#0202C8" stroke-width="1.5"/>
<path d="M7.00697 59C6.76992 59.5503 6.40615 59.9621 6 60.3576" stroke="#0202C8" stroke-linecap="round" stroke-linejoin="round"/>
<path d="M5.08442 59C4.78179 59.4312 4.36701 59.774 4 60.1313" stroke="#0202C8" stroke-linecap="round" stroke-linejoin="round"/>
<path d="M6.93912 56C6.09213 57.0157 5.07614 57.8715 4 58.6574" stroke="#0202C8" stroke-linecap="round" stroke-linejoin="round"/>
<path d="M6.14906 55C5.3686 55.7641 4.04528 55.7163 3 55.9198" stroke="#0202C8" stroke-linecap="round" stroke-linejoin="round"/>
<path d="M5.88944 54C5.16058 54.298 4.5525 54.7907 4 55.3287" stroke="#0202C8" stroke-linecap="round" stroke-linejoin="round"/>
<path d="M6.08442 53C5.76752 53.5218 5.36134 53.2667 5 53.2667" stroke="#0202C8" stroke-linecap="round" stroke-linejoin="round"/>
<path d="M6 51C6.81205 51.1652 6.5839 51.7045 6.69265 52.1038" stroke="#0202C8" stroke-linecap="round" stroke-linejoin="round"/>
<path d="M74.6771 51.8907C74.6771 51.8907 72.6771 42.8907 68 49.3086" stroke="#0202C8" stroke-linecap="round" stroke-linejoin="round"/>
<path fill-rule="evenodd" clip-rule="evenodd" d="M35 31.2584C35.4152 27.8232 42.581 22.489 58.7665 34.1037C58.7665 34.1037 46.1701 29.1474 41.102 29.9811C37.0508 30.6475 35 31.2584 35 31.2584Z" fill="#0202C8"/>
<path fill-rule="evenodd" clip-rule="evenodd" d="M35 31.2584C35.4152 27.8232 42.581 22.489 58.7665 34.1037C58.7665 34.1037 46.1701 29.1474 41.102 29.9811C37.0508 30.6475 35 31.2584 35 31.2584Z" stroke="#0202C8" stroke-linecap="round" stroke-linejoin="round"/>
<path fill-rule="evenodd" clip-rule="evenodd" d="M18.5821 33C20.1474 33.0279 21.3319 34.2818 21.7792 35.6377L18.3563 37.564L21.7094 39.5592C21.1989 40.8551 20.0953 41.9646 18.5821 42.0136C16.6404 42.0136 14 40.4528 14 37.9638C14 35.4748 16.6404 33 18.5821 33Z" fill="#0202C8"/>
<path fill-rule="evenodd" clip-rule="evenodd" d="M43.5821 33C45.1474 33.0279 46.3319 34.2818 46.7792 35.6377L43.3563 37.564L46.7094 39.5592C46.1989 40.8551 45.0953 41.9646 43.5821 42.0136C41.6404 42.0136 39 40.4528 39 37.9638C39 35.4748 41.6404 33 43.5821 33Z" fill="#0202C8"/>
<path opacity="0.256185" d="M5.5 60.2946C9.11502 64.2437 12.0852 65.2877 13.0779 63.3022C15.0779 59.3022 19.1036 54.966 25.0779 54.3022C31.0762 53.6357 33.2543 55.6395 35.1058 57.3429C36.0324 58.1954 36.8771 58.9725 38.0779 59.3022C39.7548 59.7624 41.0992 60.3312 42.4705 60.9114C43.5898 61.385 44.7272 61.8662 46.0779 62.3022C46.1926 62.3392 46.4237 62.4834 46.7493 62.6866C48.5479 63.8092 53.2288 66.7309 57.0779 63.3022C61.1179 59.7034 63.4518 49.109 64.082 46.2482C64.1609 45.8901 64.2131 45.6531 64.2386 45.5663L64.3144 45.3137C64.4046 45.0195 64.5001 44.7168 64.5981 44.4059C65.4124 41.8237 66.4033 38.6816 66.0211 35.2055L65.9068 34.2242C65.2981 29.3213 63.6528 21.0859 56.5511 14.358C49.8269 7.98771 43.744 9.44694 39.7443 10.4064C39.2862 10.5163 38.8553 10.6197 38.454 10.704L38.2907 10.7375C37.3688 10.9223 36.4991 11.1369 35.5497 11.4056L35.1358 11.5251L32.8932 12.1986L32.2811 12.373C31.8964 12.4787 31.5531 12.5646 31.2193 12.6378L29.7236 12.9501C27.5143 13.4035 25.8348 13.5905 22.5023 12.0148C20.9494 11.2806 18.5827 11.211 16.8368 12.0768L16.7562 12.1184C16.2393 12.3956 15.3846 12.9414 14.364 13.7559C20.234 7.01046 29.0377 2.90775 38.8449 3.00158C40.0345 3.05517 40.2815 3.05897 40.5278 3.07379C40.7258 3.08569 40.9233 3.1047 41.6091 3.16236C48.6296 3.84372 54.2912 5.71961 58.7592 8.50062C61.2274 10.3261 63.4227 12.4424 65.3771 14.6968C66.9074 16.462 68.2225 18.3887 69.3085 20.4018C71.6323 25.3507 72.6771 31.0447 72.6771 37.0739C72.6777 38.402 72.5889 39.7299 72.4154 41.0475C72.3725 41.373 72.3179 41.6968 72.2632 42.0206C72.2384 42.1678 72.2135 42.315 72.1898 42.4624C71.6081 41.676 69.3707 44.0913 69.0779 44.3022C68.699 44.5751 66.3564 51.0139 66.0779 52.3022C65.5289 54.8418 65.7841 57.8636 65.9647 60.0027C66.0503 61.0153 66.1191 61.83 66.0779 62.3022C65.937 63.921 65.9879 64.4464 66.1088 64.812C65.381 67.2582 63.8334 71.0629 60.7085 74.2942C56.8707 78.2626 51.8503 79.8942 49.0931 80.7902C48.2052 81.0788 47.5519 81.2911 47.2486 81.4806C44.1075 83.4428 33.697 88.1278 29.4029 87.6033C21.0114 86.5784 16.8577 80.67 14.7742 77.7065C14.333 77.0788 13.9846 76.5833 13.7085 76.2942C7.70591 71.6232 6.07995 64.8509 5.5 60.2946Z" fill="#0202C8"/>
<path d="M33.0906 76.5022C33.0906 76.5022 29.294 71.6184 25.0779 74.4008" stroke="#0202C8" stroke-linecap="round" stroke-linejoin="round"/>
<path d="M70.819 57.149C70.819 57.149 74.3426 53.6493 69 51" stroke="#0202C8" stroke-linecap="round" stroke-linejoin="round"/>
<path fill-rule="evenodd" clip-rule="evenodd" d="M45.453 57.362C41.8891 57.362 39 54.5947 39 51.181C39 47.7673 41.8891 45 45.453 45C49.0168 45 51.9059 47.7673 51.9059 51.181C51.9059 54.5947 49.0168 57.362 45.453 57.362Z" fill="#FF0000" fill-opacity="0.181955"/>
<path fill-rule="evenodd" clip-rule="evenodd" d="M15.019 56.6149C12.2471 56.6149 10 54.4626 10 51.8075C10 49.1524 12.2471 47 15.019 47C17.7909 47 20.0379 49.1524 20.0379 51.8075C20.0379 54.4626 17.7909 56.6149 15.019 56.6149Z" fill="#FF0000" fill-opacity="0.181955"/>
<path d="M11 32.1105C20.4215 20.988 26.3467 30.5754 25.4566 36.8077C24.5665 43.04 20.2703 47.055 20.2703 47.055C20.2703 47.055 17.9928 48.3158 20.4215 51.6516C22.8502 54.9874 26.6591 53.7216 28.5028 53.1329" stroke="#0202C8" stroke-linecap="round" stroke-linejoin="round"/>
<path d="M34 55C34 55 37.7871 59.1002 42.7064 61.2847C47.6257 63.4692 51.1506 62.6583 48.2336 67.8211" stroke="#0202C8" stroke-linecap="round" stroke-linejoin="round"/>
<path d="M23.7963 29.5893C23.7963 29.5893 16.7778 27.3896 11.5485 32.5001C8.94297 35.0465 16.1614 26.5494 21.8026 28.2193" stroke="#0202C8" stroke-width="1.5"/>
<path d="M38 43.721C38 43.721 50.2806 39.8487 52.5929 43.721" stroke="#0202C8" stroke-linecap="round" stroke-linejoin="round"/>
<path d="M12 44.905C12 44.905 17.2293 41.7985 20.6377 43.5195" stroke="#0202C8" stroke-linecap="round" stroke-linejoin="round"/>
<path d="M18.2211 67.5027C23.5799 66.8023 26.2862 66.7425 30.1085 67.9126C31.0133 68.1896 35.0939 68.1901 39.0572 68.1411C40.0195 68.1293 40.7598 68.1022 41.3204 68.0817C42.1013 68.0532 42.5334 68.0374 42.7314 68.0931C43.4129 68.2847 41.5396 69.0194 39.3685 69.8708C38.0117 70.4029 36.5386 70.9807 35.5 71.5C31.6195 73.4402 25.0813 71.2099 23.1638 70.5558C23.1048 70.5356 23.0501 70.517 23 70.5C19.1514 69.1945 17.3223 67.6201 18.2211 67.5027Z" fill="white"/>
<path d="M18.2211 67.5027C23.5799 66.8023 26.2862 66.7425 30.1085 67.9126C31.0133 68.1896 35.0939 68.1901 39.0572 68.1411C40.0195 68.1293 40.7598 68.1022 41.3204 68.0817C42.1013 68.0532 42.5334 68.0374 42.7314 68.0931C43.4129 68.2847 41.5396 69.0194 39.3685 69.8708C38.0117 70.4029 36.5386 70.9807 35.5 71.5C31.6195 73.4402 25.0813 71.2099 23.1638 70.5558C23.1048 70.5356 23.0501 70.517 23 70.5C19.1514 69.1945 17.3223 67.6201 18.2211 67.5027Z" stroke="#0202C8"/>
<path d="M17.3416 63.8811C17.3416 63.8811 15.9752 67.4337 20.0743 66.8872C24.1734 66.3406 32.9182 66.6139 36.4707 67.2971C36.6975 67.3407 36.8022 67.0577 36.9418 66.68C37.215 65.9411 37.6222 64.8396 39.3401 65.1109C40.9629 65.3671 40.945 66.3557 40.932 67.0748C40.9241 67.5061 40.9181 67.8404 41.2687 67.8618C42.092 67.912 43.5 67.8618 43.5 67.8618L47.0631 65.0283L45.0631 64.0283L38.0631 63.0283C38.0631 63.0283 29.8319 61.8011 25 62C20.1681 62.1989 17.3416 63.8811 17.3416 63.8811Z" fill="white"/>
<path d="M17.3416 63.8811C17.3416 63.8811 15.9752 67.4337 20.0743 66.8872C24.1734 66.3406 32.9182 66.6139 36.4707 67.2971C36.6975 67.3407 36.8022 67.0577 36.9418 66.68C37.215 65.9411 37.6222 64.8396 39.3401 65.1109C40.9629 65.3671 40.945 66.3557 40.932 67.0748C40.9241 67.5061 40.9181 67.8404 41.2687 67.8618C42.092 67.912 43.5 67.8618 43.5 67.8618L47.0631 65.0283L45.0631 64.0283L38.0631 63.0283C38.0631 63.0283 29.8319 61.8011 25 62C20.1681 62.1989 17.3416 63.8811 17.3416 63.8811Z" stroke="#0202C8"/>
<path d="M17.6892 67.3348C19.0556 69.521 25.3105 71.0919 26.0691 71.3829C31.661 73.5281 36.8222 70.8043 40.0691 69.3829C45.6763 66.9281 47.9032 63.754 47.2027 63.7823C43.987 63.912 34.5749 61.2084 30.0999 61.2084C23.7494 61.2084 23.888 61.0122 18.3199 62.6801C17.7745 62.8435 17.2961 62.9701 16.8766 63.0657C14.4461 63.6196 14.5991 60.9839 16.1087 59V59" stroke="#0202C8" stroke-linecap="round" stroke-linejoin="round"/>
<path d="M66.0017 57C66.0017 57 65.7721 61.1258 70.7254 61.1258" stroke="#0202C8" stroke-linecap="round" stroke-linejoin="round"/>
<path d="M24.6936 56C23.6453 57.0414 22.424 59.2556 23.2993 60.6761" stroke="#0202C8" stroke-linecap="round" stroke-linejoin="round"/>
<path d="M25.0914 59C24.8975 60.0473 24.1219 61.5955 23 61.4135" stroke="#0202C8" stroke-linecap="round" stroke-linejoin="round"/>
<path d="M21.3168 57C20.73 57.672 20.2794 58.4464 20 59.2626" stroke="#0202C8" stroke-linecap="round" stroke-linejoin="round"/>
<path d="M21.0153 62C20.9334 62.6493 21.1825 62.9249 21.7124 63.1313" stroke="#0202C8" stroke-linecap="round" stroke-linejoin="round"/>
<path d="M28.6971 59C28.6999 59.7063 28.4195 60.3409 28 60.8855" stroke="#0202C8" stroke-linecap="round" stroke-linejoin="round"/>
<path d="M21.859 74C21.2185 74.9419 20.6728 75.9489 20 76.866" stroke="#0202C8" stroke-linecap="round" stroke-linejoin="round"/>
<path d="M12.0206 62C11.9727 63.2398 11.9284 64.399 12.8727 65.3185" stroke="#0202C8" stroke-linecap="round" stroke-linejoin="round"/>
<path d="M15.0844 71C14.6343 71.5525 14.4223 72.2618 14 72.8101" stroke="#0202C8" stroke-linecap="round" stroke-linejoin="round"/>
<path d="M15.1679 74C14.8992 74.7347 14.9193 75.4926 15.4777 76.0364" stroke="#0202C8" stroke-linecap="round" stroke-linejoin="round"/>
<path d="M12 67C12.3974 68.3799 13.0177 69.7035 13.5492 70.9973" stroke="#0202C8" stroke-linecap="round" stroke-linejoin="round"/>
<path d="M17.9584 60.3872C17.5405 61.4654 16.8144 62.4591 15.7771 63.0269" stroke="#0202C8" stroke-linecap="round" stroke-linejoin="round"/>
<path d="M11 64C11.0895 65.1282 11.5858 66.082 12.1619 67.0168" stroke="#0202C8" stroke-linecap="round" stroke-linejoin="round"/>
<path d="M9 63C9.7499 64.4598 10.7567 65.896 11.0914 67.5252" stroke="#0202C8" stroke-linecap="round" stroke-linejoin="round"/>
<path d="M7.92951 63C8.0268 64.2863 7.85524 65.4701 7 66.4693" stroke="#0202C8" stroke-linecap="round" stroke-linejoin="round"/>
<path d="M9.48053 66C8.81331 67.518 8.61206 70.027 10.41 70.9023" stroke="#0202C8" stroke-linecap="round" stroke-linejoin="round"/>
<path d="M11.4717 69C11.1326 70.0558 10.9299 71.0361 10 71.7151" stroke="#0202C8" stroke-linecap="round" stroke-linejoin="round"/>
<path d="M10.0768 68C10.0012 69.3754 9.75726 70.7057 10.8514 71.771" stroke="#0202C8" stroke-linecap="round" stroke-linejoin="round"/>
<path d="M6.66265 63C5.3665 65.1944 6.1298 67.9648 7.59215 69.8633" stroke="#0202C8" stroke-linecap="round" stroke-linejoin="round"/>
<path d="M11.9295 71C11.9505 72.1996 11.7816 73.4426 11 74.3939" stroke="#0202C8" stroke-linecap="round" stroke-linejoin="round"/>
<path d="M14.007 73C13.6 74.1152 13.2932 75.2518 13 76.3939" stroke="#0202C8" stroke-linecap="round" stroke-linejoin="round"/>
<path d="M16.7816 78C16.4539 79.4064 16.4761 81.8066 15 82.5252" stroke="#0202C8" stroke-linecap="round" stroke-linejoin="round"/>
<path d="M29 56C30.4845 57.0341 31.1617 58.7011 31.9434 60.2235" stroke="#0202C8" stroke-linecap="round" stroke-linejoin="round"/>
<path d="M31 55C32.1449 56.246 32.4251 58.2943 34.4856 58.6956" stroke="#0202C8" stroke-linecap="round" stroke-linejoin="round"/>
<path d="M33 56C33.8613 56.5166 34.6875 57.0357 35.3238 57.8101" stroke="#0202C8" stroke-linecap="round" stroke-linejoin="round"/>
<path d="M36 59C37.3055 59.3066 38.4984 60.3576 39.7955 60.3576" stroke="#0202C8" stroke-linecap="round" stroke-linejoin="round"/>
<path d="M33 59C34.3055 59.3066 35.4984 60.3576 36.7955 60.3576" stroke="#0202C8" stroke-linecap="round" stroke-linejoin="round"/>
<path d="M34 61C34.9184 61.3408 35.7316 62.0648 36.6336 62.3576" stroke="#0202C8" stroke-linecap="round" stroke-linejoin="round"/>
<path d="M32 58C32.6268 59.019 32.7002 60.2022 32.9295 61.3185" stroke="#0202C8" stroke-linecap="round" stroke-linejoin="round"/>
<path d="M29 58C29.4687 59.3323 30.2365 60.6388 31.6336 61.0922" stroke="#0202C8" stroke-linecap="round" stroke-linejoin="round"/>
<path d="M26.4648 58C26.0609 59.27 26 60.5366 26 61.8464" stroke="#0202C8" stroke-linecap="round" stroke-linejoin="round"/>
<path d="M25.0139 58C24.6648 58.9574 23.8533 59.6209 23 60.0364" stroke="#0202C8" stroke-linecap="round" stroke-linejoin="round"/>
<path d="M22.0478 56C21.1429 57.284 20.5569 58.9417 21.4281 60.299" stroke="#0202C8" stroke-linecap="round" stroke-linejoin="round"/>
<path d="M22.0108 55C21.3143 55.9838 20.6995 57.3514 21.1588 58.4693" stroke="#0202C8" stroke-linecap="round" stroke-linejoin="round"/>
<path d="M23.7955 55C22.0655 55.2321 20.3415 57.1839 20 58.8465" stroke="#0202C8" stroke-linecap="round" stroke-linejoin="round"/>
<path d="M22.7955 58C21.0655 58.2321 19.3415 60.1839 19 61.8465" stroke="#0202C8" stroke-linecap="round" stroke-linejoin="round"/>
<path d="M21.1758 55C19.5827 56.1698 18.2255 57.9259 18 59.9023" stroke="#0202C8" stroke-linecap="round" stroke-linejoin="round"/>
<path d="M22.007 58C21.5525 59.0077 21.1831 59.9469 21 61.0168" stroke="#0202C8" stroke-linecap="round" stroke-linejoin="round"/>
<path d="M14.7816 63C14.3975 63.9112 13.7932 64.7956 13 65.4135" stroke="#0202C8" stroke-linecap="round" stroke-linejoin="round"/>
<path d="M18.3392 58.3513C17.4732 59.1143 16.0379 60.2802 15.666 61.0846" stroke="#0202C8" stroke-linecap="round" stroke-linejoin="round"/>
<path d="M23.2324 59C23.059 60.356 23 61.7089 23 63.0727" stroke="#0202C8" stroke-linecap="round" stroke-linejoin="round"/>
<path d="M23.8561 55C23.2227 56.0467 22.6097 57.6283 23.3139 58.771" stroke="#0202C8" stroke-linecap="round" stroke-linejoin="round"/>
<path d="M25.0944 57C25.1812 57.7882 25.0169 58.5607 25.0169 59.338" stroke="#0202C8" stroke-linecap="round" stroke-linejoin="round"/>
<path d="M26.925 55C25.41 55.774 26.0932 58.4809 26.6151 59.7515" stroke="#0202C8" stroke-linecap="round" stroke-linejoin="round"/>
<path d="M27.4648 57C27.818 58.2865 27.575 59.4251 27 60.5448" stroke="#0202C8" stroke-linecap="round" stroke-linejoin="round"/>
<path d="M29 57C29.1989 58.0473 29.3098 59.1045 29.3098 60.1677" stroke="#0202C8" stroke-linecap="round" stroke-linejoin="round"/>
<path d="M28 60C28.02 60.6047 28.1426 60.8005 28.6971 60.9805" stroke="#0202C8" stroke-linecap="round" stroke-linejoin="round"/>
<path d="M31 56C31.5746 56.8205 31.4951 57.8463 31.8521 58.7151" stroke="#0202C8" stroke-linecap="round" stroke-linejoin="round"/>
<path d="M30 55C31.416 55.5575 31.8246 56.7631 32.6336 57.866" stroke="#0202C8" stroke-linecap="round" stroke-linejoin="round"/>
<path d="M32 54.0006C33.1985 53.9754 33.8164 54.7783 34.4787 55.5844" stroke="#0202C8" stroke-linecap="round" stroke-linejoin="round"/>
<path d="M29 56C29.7972 56.25 30.6518 56.1508 31.4787 56.1508" stroke="#0202C8" stroke-linecap="round" stroke-linejoin="round"/>
<path d="M41 56C41.3838 57.4185 41.892 58.6823 43.4012 58.866" stroke="#0202C8" stroke-linecap="round" stroke-linejoin="round"/>
<path d="M44 59C44.9699 59.3858 45.4329 60.131 45.7816 61.0364" stroke="#0202C8" stroke-linecap="round" stroke-linejoin="round"/>
<path d="M16.8437 78C16.1967 79.1367 15.2506 81.769 16.9986 82.4498" stroke="#0202C8" stroke-linecap="round" stroke-linejoin="round"/>
<path d="M51.5561 76C51.4193 77.354 50.3931 78.2626 49 78.2626" stroke="#0202C8" stroke-linecap="round" stroke-linejoin="round"/>
<path d="M18.4573 75C18.012 76.0174 17.9126 77.0946 18.07 78.1677" stroke="#0202C8" stroke-linecap="round" stroke-linejoin="round"/>
<path d="M15.0139 69C14.3737 69.489 13.7586 69.6487 13 69.7542" stroke="#0202C8" stroke-linecap="round" stroke-linejoin="round"/>
<path d="M14.7399 70C14.097 71.1145 13.9033 72.3232 14.0427 73.5448" stroke="#0202C8" stroke-linecap="round" stroke-linejoin="round"/>
<path d="M14.7399 66C14.097 67.1145 13.9033 68.3232 14.0427 69.5448" stroke="#0202C8" stroke-linecap="round" stroke-linejoin="round"/>
<path d="M11.5492 65C11.1411 65.5987 10.7206 66.0311 10 66.1313" stroke="#0202C8" stroke-linecap="round" stroke-linejoin="round"/>
<path d="M11.6336 63C11.0695 63.9221 10.0883 64.5833 9 64.7347" stroke="#0202C8" stroke-linecap="round" stroke-linejoin="round"/>
<path d="M10.0139 61C9.37707 61.5501 8.73957 62.0969 8 62.5084" stroke="#0202C8" stroke-linecap="round" stroke-linejoin="round"/>
<path d="M51.3098 74C51.7832 74.6994 52.8138 79.1139 51 78.5252" stroke="#0202C8" stroke-linecap="round" stroke-linejoin="round"/>
<path d="M53 71C54.0514 72.1187 54.0242 73.1535 53.3873 74.3939" stroke="#0202C8" stroke-linecap="round" stroke-linejoin="round"/>
<path d="M53 67C53.5558 67.6977 54.6579 68.2308 55.5561 68.0559" stroke="#0202C8" stroke-linecap="round" stroke-linejoin="round"/>
<path d="M50 61C50.9027 61.5902 51.9729 61.7775 53.0209 61.905" stroke="#0202C8" stroke-linecap="round" stroke-linejoin="round"/>
<path d="M51 60C52.7293 60.9822 53.1124 62.3712 53.3238 64.2235" stroke="#0202C8" stroke-linecap="round" stroke-linejoin="round"/>
<path d="M53 60.0818C54.5189 59.4122 53.8804 63.0499 53.6971 63.8528" stroke="#0202C8" stroke-linecap="round" stroke-linejoin="round"/>
<path d="M55 61.3576C55.5362 61.0821 55.8539 60.4691 56.2393 60" stroke="#0202C8" stroke-linecap="round" stroke-linejoin="round"/>
<path d="M57 61C57.4135 62.0226 57.8246 63.077 58.7041 63.7906" stroke="#0202C8" stroke-linecap="round" stroke-linejoin="round"/>
<path d="M58 59C58.574 59.8828 58.5829 60.9401 58.6971 61.9414" stroke="#0202C8" stroke-linecap="round" stroke-linejoin="round"/>
<path d="M59.7746 60C59.5436 60.9147 59.2091 61.799 59 62.7151" stroke="#0202C8" stroke-linecap="round" stroke-linejoin="round"/>
<path d="M66.0026 51C65.9363 52.3501 67.1717 53.0399 68.2489 53.5643" stroke="#0202C8" stroke-linecap="round" stroke-linejoin="round"/>
<path d="M67.1758 52C66.4114 53.2121 65.5802 55.0862 64 55.3939" stroke="#0202C8" stroke-linecap="round" stroke-linejoin="round"/>
<path d="M66.823 48C65.8251 48.711 65.7834 51.2403 66.4357 52.299" stroke="#0202C8" stroke-linecap="round" stroke-linejoin="round"/>
<path d="M67.3168 49C67.8864 50.7149 67.0627 52.5981 66 53.9778" stroke="#0202C8" stroke-linecap="round" stroke-linejoin="round"/>
<path d="M65.9959 50C64.7809 51.0432 62.4222 54.0847 63.1299 55.8074" stroke="#0202C8" stroke-linecap="round" stroke-linejoin="round"/>
<path d="M65.7111 55C65.0146 56.2466 64.2859 57.3768 63 58.0922" stroke="#0202C8" stroke-linecap="round" stroke-linejoin="round"/>
<path d="M63.8046 53C62.835 55.3506 62.3325 58.2289 64.7341 59.7878" stroke="#0202C8" stroke-linecap="round" stroke-linejoin="round"/>
<path d="M65.4012 58C64.7689 59.174 63.9705 60.2981 63 61.2431" stroke="#0202C8" stroke-linecap="round" stroke-linejoin="round"/>
<path d="M64.0086 59C63.911 60.5427 64.6429 62.0979 66.1775 62.6956" stroke="#0202C8" stroke-linecap="round" stroke-linejoin="round"/>
<path d="M65.9295 61C66.2945 62.5528 65.6943 63.8716 65 65.2235" stroke="#0202C8" stroke-linecap="round" stroke-linejoin="round"/>
<path d="M65.385 60C63.7569 61.6687 63.4834 65.171 64.9977 67.0141" stroke="#0202C8" stroke-linecap="round" stroke-linejoin="round"/>
<path d="M66.4717 65C66.429 66.3302 65.8776 67.7457 65 68.771" stroke="#0202C8" stroke-linecap="round" stroke-linejoin="round"/>
<path d="M66.9295 63C68.5194 64.6699 66.9599 67.398 66 69.0336" stroke="#0202C8" stroke-linecap="round" stroke-linejoin="round"/>
<path d="M65.257 66C64.6152 67.3304 61.8334 71.2946 63.5529 72.4108" stroke="#0202C8" stroke-linecap="round" stroke-linejoin="round"/>
<path d="M66.0914 68C66.1146 69.5771 66.3226 73.1286 64 73.1286" stroke="#0202C8" stroke-linecap="round" stroke-linejoin="round"/>
<path d="M62.7746 69C62.549 71.26 62.2902 73.5272 62 75.7879" stroke="#0202C8" stroke-linecap="round" stroke-linejoin="round"/>
<path d="M64.9574 71C64.5442 73.1356 61.8943 74.0054 60 74.6202" stroke="#0202C8" stroke-linecap="round" stroke-linejoin="round"/>
<path d="M61.09 72C61.161 73.5337 60.4593 76.1719 62.097 77.1286" stroke="#0202C8" stroke-linecap="round" stroke-linejoin="round"/>
<path d="M59.3307 75C59.342 77.4638 58.2648 79.1769 56 80.2794" stroke="#0202C8" stroke-linecap="round" stroke-linejoin="round"/>
<path d="M56.2706 76C55.3056 77.2266 54.0902 80.6174 56.0382 81.4303" stroke="#0202C8" stroke-linecap="round" stroke-linejoin="round"/>
<path d="M57.5422 75C58.8412 75.2659 57.5461 77.6718 57 78.4693" stroke="#0202C8" stroke-linecap="round" stroke-linejoin="round"/>
<path d="M54.6971 78C54.4146 79.1979 54.3989 80.4549 54 81.6202" stroke="#0202C8" stroke-linecap="round" stroke-linejoin="round"/>
<path d="M52.2393 79C51.8716 80.0442 52.0087 82.3483 51 82.5448" stroke="#0202C8" stroke-linecap="round" stroke-linejoin="round"/>
<path d="M51.1549 79C51.4765 80.3447 51.2738 81.7397 51 83.0727" stroke="#0202C8" stroke-linecap="round" stroke-linejoin="round"/>
<path d="M52 69.8754C53.1534 69.1553 52.5475 65.6859 52.3098 67.5374C52.9686 69.1097 53.5411 70.7647 54.3238 72.2889" stroke="#0202C8" stroke-linecap="round" stroke-linejoin="round"/>
<path d="M54.859 71C54.7315 72.3859 53.5907 73.3191 53 74.4693" stroke="#0202C8" stroke-linecap="round" stroke-linejoin="round"/>
<path d="M53 73C53.915 73.7068 55.4348 74.5838 56.6406 74.5838" stroke="#0202C8" stroke-linecap="round" stroke-linejoin="round"/>
<path d="M56 75C56.6464 76.2677 56.5626 77.7943 56.3098 79.1481" stroke="#0202C8" stroke-linecap="round" stroke-linejoin="round"/>
<path d="M55 72C55.7587 73.7905 58.0734 73.5838 59.725 73.5838" stroke="#0202C8" stroke-linecap="round" stroke-linejoin="round"/>
<path d="M58 72C59.353 72.4316 59.4746 73.7431 59.859 74.866" stroke="#0202C8" stroke-linecap="round" stroke-linejoin="round"/>
<path d="M60 71.6788C60.9831 71.7834 61.8278 71.344 62.7111 71" stroke="#0202C8" stroke-linecap="round" stroke-linejoin="round"/>
<path d="M60.1549 71C60.5077 71.7427 60.4914 72.7001 60 73.338" stroke="#0202C8" stroke-linecap="round" stroke-linejoin="round"/>
<path d="M57.0844 70C56.9237 70.6742 56.5455 71.0035 56 71.3576" stroke="#0202C8" stroke-linecap="round" stroke-linejoin="round"/>
<path d="M54 69C54.5076 70.2222 55.7097 69.9643 56.7885 69.7542" stroke="#0202C8" stroke-linecap="round" stroke-linejoin="round"/>
<path d="M8 58C8.60977 59.775 8.69713 61.5831 8.69713 63.4303" stroke="#0202C8" stroke-linecap="round" stroke-linejoin="round"/>
<path d="M7.70409 60C7.27982 60.6943 6.57189 61.1024 6 61.6592" stroke="#0202C8" stroke-linecap="round" stroke-linejoin="round"/>
<path d="M8.23238 61C8.24052 61.4714 8.06646 61.9046 8 62.3576" stroke="#0202C8" stroke-linecap="round" stroke-linejoin="round"/>
<path d="M8.10004 60C7.8163 61.0743 6.2155 62.8473 7.48037 63.771" stroke="#0202C8" stroke-linecap="round" stroke-linejoin="round"/>
<path d="M7.16885 61C6.67532 61.938 5.72042 62.4857 5 63.1872" stroke="#0202C8" stroke-linecap="round" stroke-linejoin="round"/>
<path d="M7.47171 63C6.86132 64.0335 6.23906 65.0038 6 66.1677" stroke="#0202C8" stroke-linecap="round" stroke-linejoin="round"/>
<path d="M8.26565 66C7.91075 67.3793 7.88722 68.8165 8.34311 70.1481" stroke="#0202C8" stroke-linecap="round" stroke-linejoin="round"/>
<path d="M10.007 68C9.61359 69.141 9.17382 70.2846 9 71.4693" stroke="#0202C8" stroke-linecap="round" stroke-linejoin="round"/>
<path d="M10.1983 70C9.92588 71.8826 9.73054 73.7802 11.0504 75.2794" stroke="#0202C8" stroke-linecap="round" stroke-linejoin="round"/>
<path d="M12.1619 72C11.8441 73.4501 11.4008 74.868 11 76.299" stroke="#0202C8" stroke-linecap="round" stroke-linejoin="round"/>
<path d="M13.0793 74C12.8274 75.7103 13.1585 77.7731 14.3186 79.1286" stroke="#0202C8" stroke-linecap="round" stroke-linejoin="round"/>
<path d="M50.4648 81C50.2049 82.3231 50 83.6407 50 84.9973" stroke="#0202C8" stroke-linecap="round" stroke-linejoin="round"/>
<path d="M52.6197 80C52.7478 81.5134 52.5414 82.8932 52 84.299" stroke="#0202C8" stroke-linecap="round" stroke-linejoin="round"/>
<path d="M55.718 79C54.829 80.515 53.674 82.8611 52 83.6761" stroke="#0202C8" stroke-linecap="round" stroke-linejoin="round"/>
<path d="M57 77C57.3655 77.9279 57.1158 78.9214 57.3098 79.866" stroke="#0202C8" stroke-linecap="round" stroke-linejoin="round"/>
<path d="M58 67C58.7536 68.4283 58.9217 70.0618 59.3168 71.6006" stroke="#0202C8" stroke-linecap="round" stroke-linejoin="round"/>
<path d="M55 66C55.8435 66.7238 57.056 66.566 58.0984 66.6788" stroke="#0202C8" stroke-linecap="round" stroke-linejoin="round"/>
<path d="M54 64C55.0602 65.3141 54.9002 67.0414 55.4717 68.5252" stroke="#0202C8" stroke-linecap="round" stroke-linejoin="round"/>
<path d="M52 63C52.3904 64.2575 53.233 66.3813 54.9434 65.7151" stroke="#0202C8" stroke-linecap="round" stroke-linejoin="round"/>
<path d="M49 61C49.5743 61.4234 50.2716 61.5384 50.9365 61.7542" stroke="#0202C8" stroke-linecap="round" stroke-linejoin="round"/>
<path d="M50.7041 71C50.372 71.9688 49.8862 73.122 49 73.6397" stroke="#0202C8" stroke-linecap="round" stroke-linejoin="round"/>
<path d="M52.5422 69C52.9269 70.1389 52.2168 71.1122 52 72.1677" stroke="#0202C8" stroke-linecap="round" stroke-linejoin="round"/>
<path d="M53 66C53.8028 66.9342 54.9116 67.4841 55.7885 68.338" stroke="#0202C8" stroke-linecap="round" stroke-linejoin="round"/>
<path d="M56 65.0311C57.6953 64.6347 58.0139 68.1333 58.0139 69.3301" stroke="#0202C8" stroke-linecap="round" stroke-linejoin="round"/>
<path d="M57 62C58.6606 62.9655 58.3626 66.3161 60.4082 66.6006" stroke="#0202C8" stroke-linecap="round" stroke-linejoin="round"/>
<path d="M60.0019 65C59.9528 66.3759 60.8653 68.5569 61.2413 70.204" stroke="#0202C8" stroke-linecap="round" stroke-linejoin="round"/>
<path d="M58.3098 69C58.3915 69.8815 58.2178 70.7159 58 71.5643" stroke="#0202C8" stroke-linecap="round" stroke-linejoin="round"/>
<path d="M62 67C62.4135 67.9698 63.3755 68.431 64.2463 68.9609" stroke="#0202C8" stroke-linecap="round" stroke-linejoin="round"/>
<path d="M63 65C63.8907 66.0959 64.0764 68.074 63.5422 69.3744" stroke="#0202C8" stroke-linecap="round" stroke-linejoin="round"/>
<path d="M63 64.5279C64.0825 65.1132 65.0209 64.5614 65.9434 64" stroke="#0202C8" stroke-linecap="round" stroke-linejoin="round"/>
<path d="M66 64C66.4056 64.3917 66.7392 64.8339 67.0844 65.2822" stroke="#0202C8" stroke-linecap="round" stroke-linejoin="round"/>
<path d="M63.0844 62C63.1777 63.4628 62.9791 64.8533 62 65.9973" stroke="#0202C8" stroke-linecap="round" stroke-linejoin="round"/>
<path d="M61.5103 59C60.1724 60.1199 59.5057 62.2581 60.4259 63.7515" stroke="#0202C8" stroke-linecap="round" stroke-linejoin="round"/>
<path d="M62 57C63.0162 58.1979 62.798 59.7237 63.007 61.1481" stroke="#0202C8" stroke-linecap="round" stroke-linejoin="round"/>
<path d="M61.3873 61C61.5835 62.4416 61 63.798 61 65.2235" stroke="#0202C8" stroke-linecap="round" stroke-linejoin="round"/>
<path d="M60.7938 62.0457C58.988 61.4601 55.7046 66.6855 57.5405 67.4005" stroke="#0202C8" stroke-linecap="round" stroke-linejoin="round"/>
<path d="M60.8521 66C60.8464 67.0234 60.3853 68.0035 60 68.9414" stroke="#0202C8" stroke-linecap="round" stroke-linejoin="round"/>
<path d="M13.1124 60C12.2032 61.248 11.5833 62.9805 12.3378 64.4498" stroke="#0202C8" stroke-linecap="round" stroke-linejoin="round"/>
<path d="M10.3873 61C10.2263 61.6566 10 62.2885 10 62.9609" stroke="#0202C8" stroke-linecap="round" stroke-linejoin="round"/>
<path d="M9.16189 60C8.68652 60.4004 8.28409 60.9552 8 61.5084" stroke="#0202C8" stroke-linecap="round" stroke-linejoin="round"/>
<path d="M12.6266 62C12.1307 62.8266 11.6845 63.6716 11 64.338" stroke="#0202C8" stroke-linecap="round" stroke-linejoin="round"/>
<path d="M9.19877 62C8.77637 63.5851 8.98918 65.2653 10.2057 66.4498" stroke="#0202C8" stroke-linecap="round" stroke-linejoin="round"/>
<path d="M10.007 65C9.60637 65.9585 9.25358 66.9537 9 67.9414" stroke="#0202C8" stroke-linecap="round" stroke-linejoin="round"/>
<path d="M23.0951 75C22.8616 76.3821 23.0449 77.8599 23.7922 79.0727" stroke="#0202C8" stroke-linecap="round" stroke-linejoin="round"/>
<path d="M50.029 70C49.9487 70.8679 50.0219 71.5699 50.4163 72.338" stroke="#0202C8" stroke-linecap="round" stroke-linejoin="round"/>
<path d="M16 70C16.5563 71.1727 16.6192 72.7093 17.5864 73.651" stroke="#0202C8" stroke-linecap="round" stroke-linejoin="round"/>
<path d="M17.7401 73C16.6922 73.6918 15.5173 74.3187 15 73.983" stroke="#0202C8" stroke-linecap="round" stroke-linejoin="round"/>
<path d="M13 73C13.7297 74.2426 14.4082 75.6349 15.4517 76.651" stroke="#0202C8" stroke-linecap="round" stroke-linejoin="round"/>
<path d="M16.0683 75C16.0683 75.8425 16.0683 76.6851 16.0683 77.5276" stroke="#0202C8" stroke-linecap="round" stroke-linejoin="round"/>
<path d="M24 81.3701C24.2436 80.1518 24.436 79.0483 25.1537 78" stroke="#0202C8" stroke-linecap="round" stroke-linejoin="round"/>
<path d="M11 66.2297C11.0987 65.0992 11.8639 63 13.3075 63" stroke="#0202C8" stroke-linecap="round" stroke-linejoin="round"/>
<path d="M10 62.9659C10.5099 62.3061 10.9863 61.5843 11.5864 61" stroke="#0202C8" stroke-linecap="round" stroke-linejoin="round"/>
<path d="M34 75C33.9954 76.0202 34.3519 77.0547 35 78" stroke="#0202C8" stroke-linecap="round" stroke-linejoin="round"/>
<path d="M35 77C34.5047 78.37 33.6647 79.6705 33 81" stroke="#0202C8" stroke-linecap="round" stroke-linejoin="round"/>
<path d="M36 76C35.5405 77.1882 34.1512 79.9491 35.7453 81" stroke="#0202C8" stroke-linecap="round" stroke-linejoin="round"/>
<path d="M39 77C38.3552 78.3125 38 79.6531 38 81" stroke="#0202C8" stroke-linecap="round" stroke-linejoin="round"/>
<path d="M17.0517 79C16.8558 80.797 17.2266 82.5501 18 84" stroke="#0202C8" stroke-linecap="round" stroke-linejoin="round"/>
<path d="M20 81C20.6607 82.6046 19.7902 84.4865 20.2324 86" stroke="#0202C8" stroke-linecap="round" stroke-linejoin="round"/>
<path d="M21 82C21.1703 83.6162 21.4871 86.3017 23 87" stroke="#0202C8" stroke-linecap="round" stroke-linejoin="round"/>
<path d="M26 84C27.1782 85.1298 26.9888 86.5981 26.9888 88" stroke="#0202C8" stroke-linecap="round" stroke-linejoin="round"/>
<path d="M25 84C25.3505 85.6715 26.2578 87.3385 28 88" stroke="#0202C8" stroke-linecap="round" stroke-linejoin="round"/>
<path d="M30 85C30.5281 86.2899 30.8019 87.6398 31 89" stroke="#0202C8" stroke-linecap="round" stroke-linejoin="round"/>
<path d="M33.4799 84C34.0396 85.709 34.4668 88.9252 33 90" stroke="#0202C8" stroke-linecap="round" stroke-linejoin="round"/>
<path d="M37 85C36.7026 85.9531 35.7707 87.8529 35 88" stroke="#0202C8" stroke-linecap="round" stroke-linejoin="round"/>
<path d="M39 85C38.6943 85.9958 38.1829 86.9634 38 88" stroke="#0202C8" stroke-linecap="round" stroke-linejoin="round"/>
<path d="M42 84C41.6982 85.3501 41.3039 87.2318 40 88" stroke="#0202C8" stroke-linecap="round" stroke-linejoin="round"/>
<path d="M45 85C44.4001 86.0203 43.7602 87.0634 43 88" stroke="#0202C8" stroke-linecap="round" stroke-linejoin="round"/>
<path d="M50 75C49.3821 75.9606 48.2159 76.6623 47 77" stroke="#0202C8" stroke-linecap="round" stroke-linejoin="round"/>
<path d="M47 74C45.1382 74.4295 44.6324 77.3821 45.2501 79" stroke="#0202C8" stroke-linecap="round" stroke-linejoin="round"/>
<path d="M49 74C47.7975 75.1607 46.8182 76.4347 47.0286 78" stroke="#0202C8" stroke-linecap="round" stroke-linejoin="round"/>
<path d="M32 83C31.2743 83.5392 29.1368 85.1085 30.3815 86" stroke="#0202C8" stroke-linecap="round" stroke-linejoin="round"/>
<path d="M32 85C31.5175 85.937 30.6691 86.8005 31.1356 88" stroke="#0202C8" stroke-linecap="round" stroke-linejoin="round"/>
<path d="M32.0372 86C31.9838 87.1632 31.8299 88.2943 33 89" stroke="#0202C8" stroke-linecap="round" stroke-linejoin="round"/>
<path d="M33 87C32.3893 88.2317 29.8543 90.5769 29 89.8697" stroke="#0202C8" stroke-linecap="round" stroke-linejoin="round"/>
<path d="M33 82C32.2308 83.1425 29.9475 84.7548 31.5682 86" stroke="#0202C8" stroke-linecap="round" stroke-linejoin="round"/>
<path d="M32 81C30.2905 81.6439 28.0079 84.1213 29.4644 86" stroke="#0202C8" stroke-linecap="round" stroke-linejoin="round"/>
<path d="M32.6202 83C31.8893 84.0299 31.5711 85.1182 33 86" stroke="#0202C8" stroke-linecap="round" stroke-linejoin="round"/>
<path d="M33.0073 83C32.9495 84.0213 33.2468 85.0021 33.4272 86" stroke="#0202C8" stroke-linecap="round" stroke-linejoin="round"/>
<path d="M41 83C40.2281 83.9598 39.6185 84.9879 39 86" stroke="#0202C8" stroke-linecap="round" stroke-linejoin="round"/>
<path d="M39 81C37.7749 81.9731 36.4319 84.5357 37.2513 86" stroke="#0202C8" stroke-linecap="round" stroke-linejoin="round"/>
<path d="M42 75C41.3833 76.842 40.7676 78.971 41.0874 81" stroke="#0202C8" stroke-linecap="round" stroke-linejoin="round"/>
<path d="M20 74C19.4396 75.2137 18.2428 76.3412 19.6848 77" stroke="#0202C8" stroke-linecap="round" stroke-linejoin="round"/>
<path d="M32.012 86C31.9073 86.6944 32.5109 87.3542 33 88" stroke="#0202C8" stroke-linecap="round" stroke-linejoin="round"/>
<path d="M34 86C32.4853 86.8307 30.4948 87.1484 29 88" stroke="#0202C8" stroke-linecap="round" stroke-linejoin="round"/>
<path d="M37 82C38.267 83.1323 39.3398 84.497 40 86" stroke="#0202C8" stroke-linecap="round" stroke-linejoin="round"/>
<path d="M24 85C24.1285 85.4957 25.3497 89.4038 25.84 88.9658C26.0663 88.7637 25.8491 88.1971 26 87.894" stroke="#0202C8" stroke-linecap="round" stroke-linejoin="round"/>
<path d="M24 84C25.3827 85.1162 25.474 87.1183 27 88" stroke="#0202C8" stroke-linecap="round" stroke-linejoin="round"/>
<path d="M29 87C29.5808 87.8847 29.6661 88.9983 30 90" stroke="#0202C8" stroke-linecap="round" stroke-linejoin="round"/>
<path d="M32.0345 87C31.9283 87.6773 32.1327 88.3372 32.1327 89" stroke="#0202C8" stroke-linecap="round" stroke-linejoin="round"/>
<path d="M34 87C33.8424 88.0985 33.4664 89.0839 33 90" stroke="#0202C8" stroke-linecap="round" stroke-linejoin="round"/>
<path d="M36 86C35.7287 86.725 35.3819 87.3773 35 88" stroke="#0202C8" stroke-linecap="round" stroke-linejoin="round"/>
<path d="M37 85C36.0788 86.7296 34.9859 88.324 34 90" stroke="#0202C8" stroke-linecap="round" stroke-linejoin="round"/>
<path d="M39 86C38.0362 87.5325 35.934 88.39 34 89" stroke="#0202C8" stroke-linecap="round" stroke-linejoin="round"/>
<path d="M32.1046 86C31.7895 86.9007 32.2148 87.4898 33 88" stroke="#0202C8" stroke-linecap="round" stroke-linejoin="round"/>
<path d="M27 85C27.5224 85.7759 28.1579 86.579 29 87" stroke="#0202C8" stroke-linecap="round" stroke-linejoin="round"/>
<path d="M21 82C21.9459 83.0421 22.9716 84.0359 24 85" stroke="#0202C8" stroke-linecap="round" stroke-linejoin="round"/>
<path d="M15 75C14.2283 76.7074 13.134 78.4198 12 80" stroke="#0202C8" stroke-linecap="round" stroke-linejoin="round"/>
<path d="M16 78C16.3176 79.9994 17.0822 82.2736 18 84" stroke="#0202C8" stroke-linecap="round" stroke-linejoin="round"/>
<path d="M28 73C28.9316 75.0596 29.4734 77.8803 28.4367 80" stroke="#0202C8" stroke-linecap="round" stroke-linejoin="round"/>
<path d="M26 74C26.2337 75.8273 26.6285 77.9877 28 79" stroke="#0202C8" stroke-linecap="round" stroke-linejoin="round"/>
<path d="M31.341 73C32.1465 75.7154 32.4058 79.5268 31 82" stroke="#0202C8" stroke-linecap="round" stroke-linejoin="round"/>
<path d="M34.551 74C35.6163 76.6008 34.9207 82 31 82" stroke="#0202C8" stroke-linecap="round" stroke-linejoin="round"/>
<path d="M33.3351 74C33.2842 75.5936 32.659 77.4418 33.2577 79" stroke="#0202C8" stroke-linecap="round" stroke-linejoin="round"/>
<path d="M36.8709 75C37.3107 77.0339 36.6122 79.0665 35 80" stroke="#0202C8" stroke-linecap="round" stroke-linejoin="round"/>
<path d="M34 73C32.715 74.8493 32 76.7931 32 79" stroke="#0202C8" stroke-linecap="round" stroke-linejoin="round"/>
<path d="M30 72C28.8997 73.8965 28.4523 76.288 30 78" stroke="#0202C8" stroke-linecap="round" stroke-linejoin="round"/>
<path d="M22 75C20.8997 76.8965 20.4523 79.288 22 81" stroke="#0202C8" stroke-linecap="round" stroke-linejoin="round"/>
<path d="M27 72C25.6849 73.1181 23.2172 75.1384 24.2435 77" stroke="#0202C8" stroke-linecap="round" stroke-linejoin="round"/>
<path d="M23.4539 71C22.5739 72.8202 22.9138 74.7734 25 76" stroke="#0202C8" stroke-linecap="round" stroke-linejoin="round"/>
<path d="M24 72C24.591 73.4289 25.1743 74.7688 27 75" stroke="#0202C8" stroke-linecap="round" stroke-linejoin="round"/>
<path d="M25 72C26.1695 72.7195 26.7711 74.5542 28 75" stroke="#0202C8" stroke-linecap="round" stroke-linejoin="round"/>
<path d="M27.274 76C27.1084 76.9147 26.7121 78.2322 27.3514 79" stroke="#0202C8" stroke-linecap="round" stroke-linejoin="round"/>
<path d="M18.5764 78C18.294 79.5456 17.227 81.8374 19 83" stroke="#0202C8" stroke-linecap="round" stroke-linejoin="round"/>
<path d="M22 80C21.4112 81.342 21.176 82.971 20 84" stroke="#0202C8" stroke-linecap="round" stroke-linejoin="round"/>
<path d="M19.2968 79C18.5939 81.0228 19.1307 83.9766 21 85" stroke="#0202C8" stroke-linecap="round" stroke-linejoin="round"/>
<path d="M24 81C25.9159 82.7517 24.596 85.1238 24 87" stroke="#0202C8" stroke-linecap="round" stroke-linejoin="round"/>
<path d="M23 83C22.9964 85.3518 23.5791 88.6542 26 89" stroke="#0202C8" stroke-linecap="round" stroke-linejoin="round"/>
<path d="M26 82C26.3863 84.183 27.7435 87.9868 30 89" stroke="#0202C8" stroke-linecap="round" stroke-linejoin="round"/>
<path d="M29 82C30.4155 83.5014 31.7318 86.229 30.5286 88" stroke="#0202C8" stroke-linecap="round" stroke-linejoin="round"/>
<path d="M32.6345 82C33.2892 84.3096 33.0564 86.9281 32 89" stroke="#0202C8" stroke-linecap="round" stroke-linejoin="round"/>
<path d="M29.7977 81C29.537 82.3142 28.0272 85.9425 30 87" stroke="#0202C8" stroke-linecap="round" stroke-linejoin="round"/>
<path d="M30 78C27.8143 78.7451 24.7038 82.7985 26.5746 85" stroke="#0202C8" stroke-linecap="round" stroke-linejoin="round"/>
<path d="M26 78C24.424 78.9478 22.9036 84.0056 25.0919 85" stroke="#0202C8" stroke-linecap="round" stroke-linejoin="round"/>
<path d="M27.4497 81C27.0627 82.661 26.4545 86.1013 28 87" stroke="#0202C8" stroke-linecap="round" stroke-linejoin="round"/>
<path d="M22 78C21.3735 79.161 20.553 80.7571 21.2933 82" stroke="#0202C8" stroke-linecap="round" stroke-linejoin="round"/>
<path d="M19 76C18.4053 77.0756 17.5441 79.2894 16 78.9685" stroke="#0202C8" stroke-linecap="round" stroke-linejoin="round"/>
<path d="M35.1047 79C34.7188 81.3254 35.4103 83.3644 37 85" stroke="#0202C8" stroke-linecap="round" stroke-linejoin="round"/>
<path d="M38.6878 81C39.2326 82.5115 39.1014 84.7132 38 86" stroke="#0202C8" stroke-linecap="round" stroke-linejoin="round"/>
<path d="M41.5661 80C42.3121 81.4885 42.0788 83.6921 41 85" stroke="#0202C8" stroke-linecap="round" stroke-linejoin="round"/>
<path d="M43.8944 80C44.2997 82.3595 43.5807 86.4339 41 87" stroke="#0202C8" stroke-linecap="round" stroke-linejoin="round"/>
<path d="M39 81C38.1421 83.2963 35 85.547 35 88" stroke="#0202C8" stroke-linecap="round" stroke-linejoin="round"/>
<path d="M34.9627 81C35.2085 82.2489 34.2046 87.7822 33 86.9065" stroke="#0202C8" stroke-linecap="round" stroke-linejoin="round"/>
<path d="M38 85C37.5917 86.7852 37.027 88.6531 36 90" stroke="#0202C8" stroke-linecap="round" stroke-linejoin="round"/>
<path d="M39 88C40.4784 86.3818 41.3421 83 44 83" stroke="#0202C8" stroke-linecap="round" stroke-linejoin="round"/>
<path d="M45 81C43.545 83.0879 42.1514 85.6369 40 87" stroke="#0202C8" stroke-linecap="round" stroke-linejoin="round"/>
<path d="M40 83C39.9286 83.9481 37.2424 90.7467 37 88.5741" stroke="#0202C8" stroke-linecap="round" stroke-linejoin="round"/>
<path d="M43 87C44.0322 86.0496 44.9139 84.8611 46 84" stroke="#0202C8" stroke-linecap="round" stroke-linejoin="round"/>
<path d="M47 82C45.8698 83.6069 44.8737 86.0745 43 87" stroke="#0202C8" stroke-linecap="round" stroke-linejoin="round"/>
<path d="M45.107 83C45.0627 84.0008 45.0296 84.998 45.0296 86" stroke="#0202C8" stroke-linecap="round" stroke-linejoin="round"/>
<path d="M46.3873 80C46.634 81.6726 46.361 83.3587 46 85" stroke="#0202C8" stroke-linecap="round" stroke-linejoin="round"/>
<path d="M48.9929 80C49.1028 82.252 47.9457 84.7287 45 85" stroke="#0202C8" stroke-linecap="round" stroke-linejoin="round"/>
<path d="M49 79C48.7705 80.3554 48.4698 81.7189 48 83" stroke="#0202C8" stroke-linecap="round" stroke-linejoin="round"/>
<path d="M48 79C48.0548 80.7426 49.3606 82.2576 51 83" stroke="#0202C8" stroke-linecap="round" stroke-linejoin="round"/>
<path d="M49 82C48.1068 83.1204 47.642 85.7065 47 86" stroke="#0202C8" stroke-linecap="round" stroke-linejoin="round"/>
<path d="M49 83C48.2077 84.5464 46.9145 85.3865 45 86" stroke="#0202C8" stroke-linecap="round" stroke-linejoin="round"/>
<path d="M47 83C48.5078 82.7374 49.7047 81.7196 51 81" stroke="#0202C8" stroke-linecap="round" stroke-linejoin="round"/>
<path d="M48 79C48.9489 77.8107 50.6309 77.2567 52 77" stroke="#0202C8" stroke-linecap="round" stroke-linejoin="round"/>
<path d="M46 76C44.9494 77.6094 45.0004 79.2986 45.0004 81" stroke="#0202C8" stroke-linecap="round" stroke-linejoin="round"/>
<path d="M44 77C42.5999 77.924 41.3551 79.0339 40 80" stroke="#0202C8" stroke-linecap="round" stroke-linejoin="round"/>
<path d="M41 78C39.1851 78.5577 38.3756 80.7553 39.5501 82" stroke="#0202C8" stroke-linecap="round" stroke-linejoin="round"/>
<path d="M38 79C37.4731 80.0709 36.5627 80.955 36 82" stroke="#0202C8" stroke-linecap="round" stroke-linejoin="round"/>
<path d="M35 79C34.6172 80.0838 32.1572 81.9909 33.3005 83" stroke="#0202C8" stroke-linecap="round" stroke-linejoin="round"/>
<path d="M33 79C31.4004 80.2888 28.3084 83.6293 31.1681 85" stroke="#0202C8" stroke-linecap="round" stroke-linejoin="round"/>
<path d="M31 78C29.6646 78.4196 28.3531 80.7168 29.3515 82" stroke="#0202C8" stroke-linecap="round" stroke-linejoin="round"/>
<path d="M27 76C24.6621 77.1411 24.5425 80.3147 25.7732 82" stroke="#0202C8" stroke-linecap="round" stroke-linejoin="round"/>
<path d="M25 78.1449C22.4768 77.1344 21.6036 81.6949 22.1615 83" stroke="#0202C8" stroke-linecap="round" stroke-linejoin="round"/>
<path d="M22 77C21.3177 77.7738 20 78.8406 20 80" stroke="#0202C8" stroke-linecap="round" stroke-linejoin="round"/>
<path d="M21 76C20.2584 76.5312 20.1222 77.2332 20 78" stroke="#0202C8" stroke-linecap="round" stroke-linejoin="round"/>
<path d="M31 78.0087C28.0388 77.7974 27.2646 81.4723 28.7004 83" stroke="#0202C8" stroke-linecap="round" stroke-linejoin="round"/>
<path d="M31.9994 77C32.0187 78.4072 31.5754 79.8582 31 81" stroke="#0202C8" stroke-linecap="round" stroke-linejoin="round"/>
<path d="M34 77C34.8313 78.5884 34.4969 80.3506 35 82" stroke="#0202C8" stroke-linecap="round" stroke-linejoin="round"/>
<path d="M34 76C33.4207 76.9351 33 77.8988 33 79" stroke="#0202C8" stroke-linecap="round" stroke-linejoin="round"/>
</svg>
